<?xml version="1.0" encoding="UTF-8"?>
<?xml-stylesheet href="https://cdnjs.cloudflare.com/ajax/libs/font-awesome/6.7.2/css/all.min.css" type="text/css"?>
<svg id="graph-28" width="100%" xmlns="http://www.w3.org/2000/svg" class="statediagram" style="overflow: hidden; max-width: 100%; touch-action: none; user-select: none; -webkit-user-drag: none; -webkit-tap-highlight-color: rgba(0, 0, 0, 0); background-color: rgb(2, 8, 23);" role="graphics-document document" aria-roledescription="stateDiagram" height="100%" xmlns:xlink="http://www.w3.org/1999/xlink" xmlns:ev="http://www.w3.org/2001/xml-events"><g id="viewport-20260324184149537" class="svg-pan-zoom_viewport" transform="matrix(0.6092596253712667,0,0,0.6092596253712667,227.3189895402458,29.36089853389423)" style="transform: matrix(0.60926, 0, 0, 0.60926, 227.319, 29.3609);"><style>#graph-28{font-family:"trebuchet ms",verdana,arial,sans-serif;font-size:16px;fill:#ccc;}@keyframes edge-animation-frame{from{stroke-dashoffset:0;}}@keyframes dash{to{stroke-dashoffset:0;}}#graph-28 .edge-animation-slow{stroke-dasharray:9,5!important;stroke-dashoffset:900;animation:dash 50s linear infinite;stroke-linecap:round;}#graph-28 .edge-animation-fast{stroke-dasharray:9,5!important;stroke-dashoffset:900;animation:dash 20s linear infinite;stroke-linecap:round;}#graph-28 .error-icon{fill:#a44141;}#graph-28 .error-text{fill:#ddd;stroke:#ddd;}#graph-28 .edge-thickness-normal{stroke-width:1px;}#graph-28 .edge-thickness-thick{stroke-width:3.5px;}#graph-28 .edge-pattern-solid{stroke-dasharray:0;}#graph-28 .edge-thickness-invisible{stroke-width:0;fill:none;}#graph-28 .edge-pattern-dashed{stroke-dasharray:3;}#graph-28 .edge-pattern-dotted{stroke-dasharray:2;}#graph-28 .marker{fill:lightgrey;stroke:lightgrey;}#graph-28 .marker.cross{stroke:lightgrey;}#graph-28 svg{font-family:"trebuchet ms",verdana,arial,sans-serif;font-size:16px;}#graph-28 p{margin:0;}#graph-28 defs #statediagram-barbEnd{fill:lightgrey;stroke:lightgrey;}#graph-28 g.stateGroup text{fill:#ccc;stroke:none;font-size:10px;}#graph-28 g.stateGroup text{fill:#ccc;stroke:none;font-size:10px;}#graph-28 g.stateGroup .state-title{font-weight:bolder;fill:#e0dfdf;}#graph-28 g.stateGroup rect{fill:#1f2020;stroke:#ccc;}#graph-28 g.stateGroup line{stroke:lightgrey;stroke-width:1;}#graph-28 .transition{stroke:lightgrey;stroke-width:1;fill:none;}#graph-28 .stateGroup .composit{fill:#333;border-bottom:1px;}#graph-28 .stateGroup .alt-composit{fill:#e0e0e0;border-bottom:1px;}#graph-28 .state-note{stroke:hsl(180, 0%, 18.3529411765%);fill:hsl(180, 1.5873015873%, 28.3529411765%);}#graph-28 .state-note text{fill:rgb(183.8476190475, 181.5523809523, 181.5523809523);stroke:none;font-size:10px;}#graph-28 .stateLabel .box{stroke:none;stroke-width:0;fill:#1f2020;opacity:0.5;}#graph-28 .edgeLabel .label rect{fill:#1f2020;opacity:0.5;}#graph-28 .edgeLabel{background-color:hsl(0, 0%, 34.4117647059%);text-align:center;}#graph-28 .edgeLabel p{background-color:hsl(0, 0%, 34.4117647059%);}#graph-28 .edgeLabel rect{opacity:0.5;background-color:hsl(0, 0%, 34.4117647059%);fill:hsl(0, 0%, 34.4117647059%);}#graph-28 .edgeLabel .label text{fill:#ccc;}#graph-28 .label div .edgeLabel{color:#ccc;}#graph-28 .stateLabel text{fill:#e0dfdf;font-size:10px;font-weight:bold;}#graph-28 .node circle.state-start{fill:#f4f4f4;stroke:#f4f4f4;}#graph-28 .node .fork-join{fill:#f4f4f4;stroke:#f4f4f4;}#graph-28 .node circle.state-end{fill:#cccccc;stroke:#333;stroke-width:1.5;}#graph-28 .end-state-inner{fill:#333;stroke-width:1.5;}#graph-28 .node rect{fill:#1f2020;stroke:#ccc;stroke-width:1px;}#graph-28 .node polygon{fill:#1f2020;stroke:#ccc;stroke-width:1px;}#graph-28 #statediagram-barbEnd{fill:lightgrey;}#graph-28 .statediagram-cluster rect{fill:#1f2020;stroke:#ccc;stroke-width:1px;}#graph-28 .cluster-label,#graph-28 .nodeLabel{color:#e0dfdf;}#graph-28 .statediagram-cluster rect.outer{rx:5px;ry:5px;}#graph-28 .statediagram-state .divider{stroke:#ccc;}#graph-28 .statediagram-state .title-state{rx:5px;ry:5px;}#graph-28 .statediagram-cluster.statediagram-cluster .inner{fill:#333;}#graph-28 .statediagram-cluster.statediagram-cluster-alt .inner{fill:#555;}#graph-28 .statediagram-cluster .inner{rx:0;ry:0;}#graph-28 .statediagram-state rect.basic{rx:5px;ry:5px;}#graph-28 .statediagram-state rect.divider{stroke-dasharray:10,10;fill:#555;}#graph-28 .note-edge{stroke-dasharray:5;}#graph-28 .statediagram-note rect{fill:hsl(180, 1.5873015873%, 28.3529411765%);stroke:hsl(180, 0%, 18.3529411765%);stroke-width:1px;rx:0;ry:0;}#graph-28 .statediagram-note rect{fill:hsl(180, 1.5873015873%, 28.3529411765%);stroke:hsl(180, 0%, 18.3529411765%);stroke-width:1px;rx:0;ry:0;}#graph-28 .statediagram-note text{fill:rgb(183.8476190475, 181.5523809523, 181.5523809523);}#graph-28 .statediagram-note .nodeLabel{color:rgb(183.8476190475, 181.5523809523, 181.5523809523);}#graph-28 .statediagram .edgeLabel{color:red;}#graph-28 #dependencyStart,#graph-28 #dependencyEnd{fill:lightgrey;stroke:lightgrey;stroke-width:1;}#graph-28 .statediagramTitleText{text-anchor:middle;font-size:18px;fill:#ccc;}#graph-28 :root{--mermaid-font-family:"trebuchet ms",verdana,arial,sans-serif;}</style><g><defs><marker id="graph-28_stateDiagram-barbEnd" refX="19" refY="7" markerWidth="20" markerHeight="14" markerUnits="userSpaceOnUse" orient="auto"><path d="M 19,7 L9,13 L14,7 L9,1 Z"></path></marker></defs><g class="root"><g class="clusters"></g><g class="edgePaths"><path d="M527.762,22L527.762,26.167C527.762,30.333,527.762,38.667,527.762,47C527.762,55.333,527.762,63.667,527.762,67.833L527.762,72" id="edge0" class="edge-thickness-normal edge-pattern-solid transition" style="fill:none;;;fill:none" data-edge="true" data-et="edge" data-id="edge0" data-points="W3sieCI6NTI3Ljc2MTcxODc1LCJ5IjoyMn0seyJ4Ijo1MjcuNzYxNzE4NzUsInkiOjQ3fSx7IngiOjUyNy43NjE3MTg3NSwieSI6NzJ9XQ==" marker-end="url(#graph-28_stateDiagram-barbEnd)"></path><path d="M527.762,112L527.762,116.167C527.762,120.333,527.762,128.667,527.762,137C527.762,145.333,527.762,153.667,527.762,157.833L527.762,162" id="edge1" class="edge-thickness-normal edge-pattern-solid transition" style="fill:none;;;fill:none" data-edge="true" data-et="edge" data-id="edge1" data-points="W3sieCI6NTI3Ljc2MTcxODc1LCJ5IjoxMTJ9LHsieCI6NTI3Ljc2MTcxODc1LCJ5IjoxMzd9LHsieCI6NTI3Ljc2MTcxODc1LCJ5IjoxNjJ9XQ==" marker-end="url(#graph-28_stateDiagram-barbEnd)"></path><path d="M527.762,202L527.762,206.167C527.762,210.333,527.762,218.667,527.762,227C527.762,235.333,527.762,243.667,527.762,247.833L527.762,252" id="edge2" class="edge-thickness-normal edge-pattern-solid transition" style="fill:none;;;fill:none" data-edge="true" data-et="edge" data-id="edge2" data-points="W3sieCI6NTI3Ljc2MTcxODc1LCJ5IjoyMDJ9LHsieCI6NTI3Ljc2MTcxODc1LCJ5IjoyMjd9LHsieCI6NTI3Ljc2MTcxODc1LCJ5IjoyNTJ9XQ==" marker-end="url(#graph-28_stateDiagram-barbEnd)"></path><path d="M466.195,287.989L447.577,292.824C428.959,297.659,391.723,307.33,373.104,316.331C354.486,325.333,354.486,333.667,354.486,337.833L354.486,342" id="edge3" class="edge-thickness-normal edge-pattern-solid transition" style="fill:none;;;fill:none" data-edge="true" data-et="edge" data-id="edge3" data-points="W3sieCI6NDY2LjE5NTMxMjUsInkiOjI4Ny45ODg5MzEwOTU1MDU5Nn0seyJ4IjozNTQuNDg2MzI4MTI1LCJ5IjozMTd9LHsieCI6MzU0LjQ4NjMyODEyNSwieSI6MzQyfV0=" marker-end="url(#graph-28_stateDiagram-barbEnd)"></path><path d="M260.885,380.04L237.571,384.533C214.257,389.027,167.63,398.013,144.316,406.673C121.002,415.333,121.002,423.667,121.002,427.833L121.002,432" id="edge4" class="edge-thickness-normal edge-pattern-solid transition" style="fill:none;;;fill:none" data-edge="true" data-et="edge" data-id="edge4" data-points="W3sieCI6MjYwLjg4NDc2NTYyNSwieSI6MzgwLjA0MDA1MjE5ODM1Mzc1fSx7IngiOjEyMS4wMDE5NTMxMjUsInkiOjQwN30seyJ4IjoxMjEuMDAxOTUzMTI1LCJ5Ijo0MzJ9XQ==" marker-end="url(#graph-28_stateDiagram-barbEnd)"></path><path d="M448.088,371.796L504.152,377.663C560.217,383.531,672.346,395.265,728.41,408.633C784.475,422,784.475,437,784.475,452C784.475,467,784.475,482,784.475,493.667C784.475,505.333,784.475,513.667,784.475,517.833L784.475,522" id="edge5" class="edge-thickness-normal edge-pattern-solid transition" style="fill:none;;;fill:none" data-edge="true" data-et="edge" data-id="edge5" data-points="W3sieCI6NDQ4LjA4Nzg5MDYyNSwieSI6MzcxLjc5NTc3OTMxODExMzY2fSx7IngiOjc4NC40NzQ2MDkzNzUsInkiOjQwN30seyJ4Ijo3ODQuNDc0NjA5Mzc1LCJ5Ijo0NTJ9LHsieCI6Nzg0LjQ3NDYwOTM3NSwieSI6NDk3fSx7IngiOjc4NC40NzQ2MDkzNzUsInkiOjUyMn1d" marker-end="url(#graph-28_stateDiagram-barbEnd)"></path><path d="M330.231,382L325.178,386.167C320.125,390.333,310.018,398.667,304.965,407C299.912,415.333,299.912,423.667,299.912,427.833L299.912,432" id="edge6" class="edge-thickness-normal edge-pattern-solid transition" style="fill:none;;;fill:none" data-edge="true" data-et="edge" data-id="edge6" data-points="W3sieCI6MzMwLjIzMTExOTc5MTY2NjcsInkiOjM4Mn0seyJ4IjoyOTkuOTEyMTA5Mzc1LCJ5Ijo0MDd9LHsieCI6Mjk5LjkxMjEwOTM3NSwieSI6NDMyfV0=" marker-end="url(#graph-28_stateDiagram-barbEnd)"></path><path d="M299.912,472L299.912,476.167C299.912,480.333,299.912,488.667,304.965,497C310.018,505.333,320.125,513.667,325.178,517.833L330.231,522" id="edge7" class="edge-thickness-normal edge-pattern-solid transition" style="fill:none;;;fill:none" data-edge="true" data-et="edge" data-id="edge7" data-points="W3sieCI6Mjk5LjkxMjEwOTM3NSwieSI6NDcyfSx7IngiOjI5OS45MTIxMDkzNzUsInkiOjQ5N30seyJ4IjozMzAuMjMxMTE5NzkxNjY2NywieSI6NTIyfV0=" marker-end="url(#graph-28_stateDiagram-barbEnd)"></path><path d="M374.599,522L378.789,517.833C382.98,513.667,391.36,505.333,395.55,493.667C399.74,482,399.74,467,399.74,452C399.74,437,399.74,422,395.55,410.333C391.36,398.667,382.98,390.333,378.789,386.167L374.599,382" id="edge8" class="edge-thickness-normal edge-pattern-solid transition" style="fill:none;;;fill:none" data-edge="true" data-et="edge" data-id="edge8" data-points="W3sieCI6Mzc0LjU5OTE3NTM0NzIyMjIzLCJ5Ijo1MjJ9LHsieCI6Mzk5Ljc0MDIzNDM3NSwieSI6NDk3fSx7IngiOjM5OS43NDAyMzQzNzUsInkiOjQ1Mn0seyJ4IjozOTkuNzQwMjM0Mzc1LCJ5Ijo0MDd9LHsieCI6Mzc0LjU5OTE3NTM0NzIyMjIzLCJ5IjozODJ9XQ==" marker-end="url(#graph-28_stateDiagram-barbEnd)"></path><path d="M121.002,472L121.002,476.167C121.002,480.333,121.002,488.667,121.002,497C121.002,505.333,121.002,513.667,121.002,517.833L121.002,522" id="edge9" class="edge-thickness-normal edge-pattern-solid transition" style="fill:none;;;fill:none" data-edge="true" data-et="edge" data-id="edge9" data-points="W3sieCI6MTIxLjAwMTk1MzEyNSwieSI6NDcyfSx7IngiOjEyMS4wMDE5NTMxMjUsInkiOjQ5N30seyJ4IjoxMjEuMDAxOTUzMTI1LCJ5Ijo1MjJ9XQ==" marker-end="url(#graph-28_stateDiagram-barbEnd)"></path><path d="M191.033,548.809L256.503,555.174C321.972,561.539,452.911,574.27,518.38,584.801C583.85,595.333,583.85,603.667,583.85,607.833L583.85,612" id="edge10" class="edge-thickness-normal edge-pattern-solid transition" style="fill:none;;;fill:none" data-edge="true" data-et="edge" data-id="edge10" data-points="W3sieCI6MTkxLjAzMzIwMzEyNSwieSI6NTQ4LjgwODczMzMwMDEzNzV9LHsieCI6NTgzLjg0OTYwOTM3NSwieSI6NTg3fSx7IngiOjU4My44NDk2MDkzNzUsInkiOjYxMn1d" marker-end="url(#graph-28_stateDiagram-barbEnd)"></path><path d="M99.076,562L94.508,566.167C89.94,570.333,80.804,578.667,76.236,587C71.668,595.333,71.668,603.667,71.668,607.833L71.668,612" id="edge11" class="edge-thickness-normal edge-pattern-solid transition" style="fill:none;;;fill:none" data-edge="true" data-et="edge" data-id="edge11" data-points="W3sieCI6OTkuMDc1NzM3ODQ3MjIyMjMsInkiOjU2Mn0seyJ4Ijo3MS42Njc5Njg3NSwieSI6NTg3fSx7IngiOjcxLjY2Nzk2ODc1LCJ5Ijo2MTJ9XQ==" marker-end="url(#graph-28_stateDiagram-barbEnd)"></path><path d="M71.668,652L71.668,656.167C71.668,660.333,71.668,668.667,76.236,677C80.804,685.333,89.94,693.667,94.508,697.833L99.076,702" id="edge12" class="edge-thickness-normal edge-pattern-solid transition" style="fill:none;;;fill:none" data-edge="true" data-et="edge" data-id="edge12" data-points="W3sieCI6NzEuNjY3OTY4NzUsInkiOjY1Mn0seyJ4Ijo3MS42Njc5Njg3NSwieSI6Njc3fSx7IngiOjk5LjA3NTczNzg0NzIyMjIzLCJ5Ijo3MDJ9XQ==" marker-end="url(#graph-28_stateDiagram-barbEnd)"></path><path d="M142.928,702L147.496,697.833C152.064,693.667,161.2,685.333,165.768,673.667C170.336,662,170.336,647,170.336,632C170.336,617,170.336,602,165.768,590.333C161.2,578.667,152.064,570.333,147.496,566.167L142.928,562" id="edge13" class="edge-thickness-normal edge-pattern-solid transition" style="fill:none;;;fill:none" data-edge="true" data-et="edge" data-id="edge13" data-points="W3sieCI6MTQyLjkyODE2ODQwMjc3Nzc3LCJ5Ijo3MDJ9LHsieCI6MTcwLjMzNTkzNzUsInkiOjY3N30seyJ4IjoxNzAuMzM1OTM3NSwieSI6NjMyfSx7IngiOjE3MC4zMzU5Mzc1LCJ5Ijo1ODd9LHsieCI6MTQyLjkyODE2ODQwMjc3Nzc3LCJ5Ijo1NjJ9XQ==" marker-end="url(#graph-28_stateDiagram-barbEnd)"></path><path d="M121.002,742L121.002,748.167C121.002,754.333,121.002,766.667,142.979,779C164.957,791.333,208.912,803.667,230.889,809.833L252.866,816" id="edge14" class="edge-thickness-normal edge-pattern-solid transition" style="fill:none;;;fill:none" data-edge="true" data-et="edge" data-id="edge14" data-points="W3sieCI6MTIxLjAwMTk1MzEyNSwieSI6NzQyfSx7IngiOjEyMS4wMDE5NTMxMjUsInkiOjc3OX0seyJ4IjoyNTIuODY2NDMzNjYyMjgwNywieSI6ODE2fV0=" marker-end="url(#graph-28_stateDiagram-barbEnd)"></path><path d="M379.914,816L397.11,809.833C414.305,803.667,448.697,791.333,465.892,775.667C483.088,760,483.088,741,483.088,724C483.088,707,483.088,692,483.088,677C483.088,662,483.088,647,483.088,632C483.088,617,483.088,602,483.088,587C483.088,572,483.088,557,483.088,542C483.088,527,483.088,512,483.088,497C483.088,482,483.088,467,483.088,452C483.088,437,483.088,422,483.088,407C483.088,392,483.088,377,483.088,362C483.088,347,483.088,332,487.224,320.333C491.361,308.667,499.634,300.333,503.77,296.167L507.907,292" id="edge15" class="edge-thickness-normal edge-pattern-solid transition" style="fill:none;;;fill:none" data-edge="true" data-et="edge" data-id="edge15" data-points="W3sieCI6Mzc5LjkxNDEzMTAzMDcwMTc1LCJ5Ijo4MTZ9LHsieCI6NDgzLjA4Nzg5MDYyNSwieSI6Nzc5fSx7IngiOjQ4My4wODc4OTA2MjUsInkiOjcyMn0seyJ4Ijo0ODMuMDg3ODkwNjI1LCJ5Ijo2Nzd9LHsieCI6NDgzLjA4Nzg5MDYyNSwieSI6NjMyfSx7IngiOjQ4My4wODc4OTA2MjUsInkiOjU4N30seyJ4Ijo0ODMuMDg3ODkwNjI1LCJ5Ijo1NDJ9LHsieCI6NDgzLjA4Nzg5MDYyNSwieSI6NDk3fSx7IngiOjQ4My4wODc4OTA2MjUsInkiOjQ1Mn0seyJ4Ijo0ODMuMDg3ODkwNjI1LCJ5Ijo0MDd9LHsieCI6NDgzLjA4Nzg5MDYyNSwieSI6MzYyfSx7IngiOjQ4My4wODc4OTA2MjUsInkiOjMxN30seyJ4Ijo1MDcuOTA2Njg0MDI3Nzc3NzcsInkiOjI5Mn1d" marker-end="url(#graph-28_stateDiagram-barbEnd)"></path><path d="M784.475,562L784.475,566.167C784.475,570.333,784.475,578.667,784.475,587C784.475,595.333,784.475,603.667,784.475,607.833L784.475,612" id="edge16" class="edge-thickness-normal edge-pattern-solid transition" style="fill:none;;;fill:none" data-edge="true" data-et="edge" data-id="edge16" data-points="W3sieCI6Nzg0LjQ3NDYwOTM3NSwieSI6NTYyfSx7IngiOjc4NC40NzQ2MDkzNzUsInkiOjU4N30seyJ4Ijo3ODQuNDc0NjA5Mzc1LCJ5Ijo2MTJ9XQ==" marker-end="url(#graph-28_stateDiagram-barbEnd)"></path><path d="M583.85,652L583.85,656.167C583.85,660.333,583.85,668.667,598.112,677C612.374,685.333,640.899,693.667,655.161,697.833L669.424,702" id="edge17" class="edge-thickness-normal edge-pattern-solid transition" style="fill:none;;;fill:none" data-edge="true" data-et="edge" data-id="edge17" data-points="W3sieCI6NTgzLjg0OTYwOTM3NSwieSI6NjUyfSx7IngiOjU4My44NDk2MDkzNzUsInkiOjY3N30seyJ4Ijo2NjkuNDIzNjExMTExMTExMSwieSI6NzAyfV0=" marker-end="url(#graph-28_stateDiagram-barbEnd)"></path><path d="M784.475,652L784.475,656.167C784.475,660.333,784.475,668.667,780.161,677C775.846,685.333,767.218,693.667,762.904,697.833L758.59,702" id="edge18" class="edge-thickness-normal edge-pattern-solid transition" style="fill:none;;;fill:none" data-edge="true" data-et="edge" data-id="edge18" data-points="W3sieCI6Nzg0LjQ3NDYwOTM3NSwieSI6NjUyfSx7IngiOjc4NC40NzQ2MDkzNzUsInkiOjY3N30seyJ4Ijo3NTguNTkwMjc3Nzc3Nzc3OCwieSI6NzAyfV0=" marker-end="url(#graph-28_stateDiagram-barbEnd)"></path><path d="M737.883,742L737.883,748.167C737.883,754.333,737.883,766.667,744.367,779C750.85,791.333,763.818,803.667,770.302,809.833L776.786,816" id="edge19" class="edge-thickness-normal edge-pattern-solid transition" style="fill:none;;;fill:none" data-edge="true" data-et="edge" data-id="edge19" data-points="W3sieCI6NzM3Ljg4MjgxMjUsInkiOjc0Mn0seyJ4Ijo3MzcuODgyODEyNSwieSI6Nzc5fSx7IngiOjc3Ni43ODU4MDcyOTE2NjY2LCJ5Ijo4MTZ9XQ==" marker-end="url(#graph-28_stateDiagram-barbEnd)"></path><path d="M835.191,816L846.716,809.833C858.24,803.667,881.289,791.333,892.813,775.667C904.338,760,904.338,741,904.338,724C904.338,707,904.338,692,904.338,677C904.338,662,904.338,647,904.338,632C904.338,617,904.338,602,904.338,587C904.338,572,904.338,557,904.338,542C904.338,527,904.338,512,904.338,497C904.338,482,904.338,467,904.338,452C904.338,437,904.338,422,904.338,407C904.338,392,904.338,377,904.338,362C904.338,347,904.338,332,851.836,318.226C799.335,304.452,694.331,291.905,641.83,285.631L589.328,279.357" id="edge20" class="edge-thickness-normal edge-pattern-solid transition" style="fill:none;;;fill:none" data-edge="true" data-et="edge" data-id="edge20" data-points="W3sieCI6ODM1LjE5MTA5Nzg2MTg0MjEsInkiOjgxNn0seyJ4Ijo5MDQuMzM3ODkwNjI1LCJ5Ijo3Nzl9LHsieCI6OTA0LjMzNzg5MDYyNSwieSI6NzIyfSx7IngiOjkwNC4zMzc4OTA2MjUsInkiOjY3N30seyJ4Ijo5MDQuMzM3ODkwNjI1LCJ5Ijo2MzJ9LHsieCI6OTA0LjMzNzg5MDYyNSwieSI6NTg3fSx7IngiOjkwNC4zMzc4OTA2MjUsInkiOjU0Mn0seyJ4Ijo5MDQuMzM3ODkwNjI1LCJ5Ijo0OTd9LHsieCI6OTA0LjMzNzg5MDYyNSwieSI6NDUyfSx7IngiOjkwNC4zMzc4OTA2MjUsInkiOjQwN30seyJ4Ijo5MDQuMzM3ODkwNjI1LCJ5IjozNjJ9LHsieCI6OTA0LjMzNzg5MDYyNSwieSI6MzE3fSx7IngiOjU4OS4zMjgxMjUsInkiOjI3OS4zNTcwNDYxNjUzMzYzfV0=" marker-end="url(#graph-28_stateDiagram-barbEnd)"></path><path d="M797.814,856L797.814,862.167C797.814,868.333,797.814,880.667,797.814,893C797.814,905.333,797.814,917.667,797.814,923.833L797.814,930" id="edge21" class="edge-thickness-normal edge-pattern-solid transition" style="fill:none;;;fill:none" data-edge="true" data-et="edge" data-id="edge21" data-points="W3sieCI6Nzk3LjgxNDQ1MzEyNSwieSI6ODU2fSx7IngiOjc5Ny44MTQ0NTMxMjUsInkiOjg5M30seyJ4Ijo3OTcuODE0NDUzMTI1LCJ5Ijo5MzB9XQ==" marker-end="url(#graph-28_stateDiagram-barbEnd)"></path><path d="M797.814,970L797.814,974.167C797.814,978.333,797.814,986.667,797.814,995C797.814,1003.333,797.814,1011.667,797.814,1015.833L797.814,1020" id="edge22" class="edge-thickness-normal edge-pattern-solid transition" style="fill:none;;;fill:none" data-edge="true" data-et="edge" data-id="edge22" data-points="W3sieCI6Nzk3LjgxNDQ1MzEyNSwieSI6OTcwfSx7IngiOjc5Ny44MTQ0NTMxMjUsInkiOjk5NX0seyJ4Ijo3OTcuODE0NDUzMTI1LCJ5IjoxMDIwfV0=" marker-end="url(#graph-28_stateDiagram-barbEnd)"></path></g><g class="edgeLabels"><g class="edgeLabel"><g class="label" data-id="edge0" transform="translate(0, 0)"><foreignObject width="0" height="0"><div xmlns="http://www.w3.org/1999/xhtml" class="labelBkg" style="display: table-cell; white-space: nowrap; line-height: 1.5; max-width: 200px; text-align: center;"><span class="edgeLabel"></span></div></foreignObject></g></g><g class="edgeLabel"><g class="label" data-id="edge1" transform="translate(0, 0)"><foreignObject width="0" height="0"><div xmlns="http://www.w3.org/1999/xhtml" class="labelBkg" style="display: table-cell; white-space: nowrap; line-height: 1.5; max-width: 200px; text-align: center;"><span class="edgeLabel"></span></div></foreignObject></g></g><g class="edgeLabel"><g class="label" data-id="edge2" transform="translate(0, 0)"><foreignObject width="0" height="0"><div xmlns="http://www.w3.org/1999/xhtml" class="labelBkg" style="display: table-cell; white-space: nowrap; line-height: 1.5; max-width: 200px; text-align: center;"><span class="edgeLabel"></span></div></foreignObject></g></g><g class="edgeLabel"><g class="label" data-id="edge3" transform="translate(0, 0)"><foreignObject width="0" height="0"><div xmlns="http://www.w3.org/1999/xhtml" class="labelBkg" style="display: table-cell; white-space: nowrap; line-height: 1.5; max-width: 200px; text-align: center;"><span class="edgeLabel"></span></div></foreignObject></g></g><g class="edgeLabel"><g class="label" data-id="edge4" transform="translate(0, 0)"><foreignObject width="0" height="0"><div xmlns="http://www.w3.org/1999/xhtml" class="labelBkg" style="display: table-cell; white-space: nowrap; line-height: 1.5; max-width: 200px; text-align: center;"><span class="edgeLabel"></span></div></foreignObject></g></g><g class="edgeLabel"><g class="label" data-id="edge5" transform="translate(0, 0)"><foreignObject width="0" height="0"><div xmlns="http://www.w3.org/1999/xhtml" class="labelBkg" style="display: table-cell; white-space: nowrap; line-height: 1.5; max-width: 200px; text-align: center;"><span class="edgeLabel"></span></div></foreignObject></g></g><g class="edgeLabel"><g class="label" data-id="edge6" transform="translate(0, 0)"><foreignObject width="0" height="0"><div xmlns="http://www.w3.org/1999/xhtml" class="labelBkg" style="display: table-cell; white-space: nowrap; line-height: 1.5; max-width: 200px; text-align: center;"><span class="edgeLabel"></span></div></foreignObject></g></g><g class="edgeLabel"><g class="label" data-id="edge7" transform="translate(0, 0)"><foreignObject width="0" height="0"><div xmlns="http://www.w3.org/1999/xhtml" class="labelBkg" style="display: table-cell; white-space: nowrap; line-height: 1.5; max-width: 200px; text-align: center;"><span class="edgeLabel"></span></div></foreignObject></g></g><g class="edgeLabel"><g class="label" data-id="edge8" transform="translate(0, 0)"><foreignObject width="0" height="0"><div xmlns="http://www.w3.org/1999/xhtml" class="labelBkg" style="display: table-cell; white-space: nowrap; line-height: 1.5; max-width: 200px; text-align: center;"><span class="edgeLabel"></span></div></foreignObject></g></g><g class="edgeLabel"><g class="label" data-id="edge9" transform="translate(0, 0)"><foreignObject width="0" height="0"><div xmlns="http://www.w3.org/1999/xhtml" class="labelBkg" style="display: table-cell; white-space: nowrap; line-height: 1.5; max-width: 200px; text-align: center;"><span class="edgeLabel"></span></div></foreignObject></g></g><g class="edgeLabel"><g class="label" data-id="edge10" transform="translate(0, 0)"><foreignObject width="0" height="0"><div xmlns="http://www.w3.org/1999/xhtml" class="labelBkg" style="display: table-cell; white-space: nowrap; line-height: 1.5; max-width: 200px; text-align: center;"><span class="edgeLabel"></span></div></foreignObject></g></g><g class="edgeLabel"><g class="label" data-id="edge11" transform="translate(0, 0)"><foreignObject width="0" height="0"><div xmlns="http://www.w3.org/1999/xhtml" class="labelBkg" style="display: table-cell; white-space: nowrap; line-height: 1.5; max-width: 200px; text-align: center;"><span class="edgeLabel"></span></div></foreignObject></g></g><g class="edgeLabel"><g class="label" data-id="edge12" transform="translate(0, 0)"><foreignObject width="0" height="0"><div xmlns="http://www.w3.org/1999/xhtml" class="labelBkg" style="display: table-cell; white-space: nowrap; line-height: 1.5; max-width: 200px; text-align: center;"><span class="edgeLabel"></span></div></foreignObject></g></g><g class="edgeLabel"><g class="label" data-id="edge13" transform="translate(0, 0)"><foreignObject width="0" height="0"><div xmlns="http://www.w3.org/1999/xhtml" class="labelBkg" style="display: table-cell; white-space: nowrap; line-height: 1.5; max-width: 200px; text-align: center;"><span class="edgeLabel"></span></div></foreignObject></g></g><g class="edgeLabel" transform="translate(121.001953125, 779)"><g class="label" data-id="edge14" transform="translate(-58.54296875, -12)"><foreignObject width="117.0859375" height="24"><div xmlns="http://www.w3.org/1999/xhtml" class="labelBkg" style="display: table-cell; white-space: nowrap; line-height: 1.5; max-width: 200px; text-align: center;"><span class="edgeLabel"><p>repeated failure</p></span></div></foreignObject></g></g><g class="edgeLabel"><g class="label" data-id="edge15" transform="translate(0, 0)"><foreignObject width="0" height="0"><div xmlns="http://www.w3.org/1999/xhtml" class="labelBkg" style="display: table-cell; white-space: nowrap; line-height: 1.5; max-width: 200px; text-align: center;"><span class="edgeLabel"></span></div></foreignObject></g></g><g class="edgeLabel"><g class="label" data-id="edge16" transform="translate(0, 0)"><foreignObject width="0" height="0"><div xmlns="http://www.w3.org/1999/xhtml" class="labelBkg" style="display: table-cell; white-space: nowrap; line-height: 1.5; max-width: 200px; text-align: center;"><span class="edgeLabel"></span></div></foreignObject></g></g><g class="edgeLabel"><g class="label" data-id="edge17" transform="translate(0, 0)"><foreignObject width="0" height="0"><div xmlns="http://www.w3.org/1999/xhtml" class="labelBkg" style="display: table-cell; white-space: nowrap; line-height: 1.5; max-width: 200px; text-align: center;"><span class="edgeLabel"></span></div></foreignObject></g></g><g class="edgeLabel"><g class="label" data-id="edge18" transform="translate(0, 0)"><foreignObject width="0" height="0"><div xmlns="http://www.w3.org/1999/xhtml" class="labelBkg" style="display: table-cell; white-space: nowrap; line-height: 1.5; max-width: 200px; text-align: center;"><span class="edgeLabel"></span></div></foreignObject></g></g><g class="edgeLabel"><g class="label" data-id="edge19" transform="translate(0, 0)"><foreignObject width="0" height="0"><div xmlns="http://www.w3.org/1999/xhtml" class="labelBkg" style="display: table-cell; white-space: nowrap; line-height: 1.5; max-width: 200px; text-align: center;"><span class="edgeLabel"></span></div></foreignObject></g></g><g class="edgeLabel" transform="translate(904.337890625, 542)"><g class="label" data-id="edge20" transform="translate(-11.546875, -12)"><foreignObject width="23.09375" height="24"><div xmlns="http://www.w3.org/1999/xhtml" class="labelBkg" style="display: table-cell; white-space: nowrap; line-height: 1.5; max-width: 200px; text-align: center;"><span class="edgeLabel"><p>yes</p></span></div></foreignObject></g></g><g class="edgeLabel" transform="translate(797.814453125, 893)"><g class="label" data-id="edge21" transform="translate(-8.6640625, -12)"><foreignObject width="17.328125" height="24"><div xmlns="http://www.w3.org/1999/xhtml" class="labelBkg" style="display: table-cell; white-space: nowrap; line-height: 1.5; max-width: 200px; text-align: center;"><span class="edgeLabel"><p>no</p></span></div></foreignObject></g></g><g class="edgeLabel"><g class="label" data-id="edge22" transform="translate(0, 0)"><foreignObject width="0" height="0"><div xmlns="http://www.w3.org/1999/xhtml" class="labelBkg" style="display: table-cell; white-space: nowrap; line-height: 1.5; max-width: 200px; text-align: center;"><span class="edgeLabel"></span></div></foreignObject></g></g></g><g class="nodes"><g class="node default" id="state-root_start-0" transform="translate(527.76171875, 15)"><circle class="state-start" r="7" width="14" height="14"></circle></g><g class="node  statediagram-state" id="state-SessionInitialization-1" transform="translate(527.76171875, 92)"><rect class="basic label-container" style="" rx="5" ry="5" x="-78.92578125" y="-20" width="157.8515625" height="40"></rect><g class="label" style="" transform="translate(-70.92578125, -12)"><rect></rect><foreignObject width="141.8515625" height="24"><div xmlns="http://www.w3.org/1999/xhtml" style="display: table-cell; white-space: nowrap; line-height: 1.5; max-width: 200px; text-align: center;"><span class="nodeLabel"><p>SessionInitialization</p></span></div></foreignObject></g></g><g class="node  statediagram-state" id="state-Greeting-2" transform="translate(527.76171875, 182)"><rect class="basic label-container" style="" rx="5" ry="5" x="-39.0859375" y="-20" width="78.171875" height="40"></rect><g class="label" style="" transform="translate(-31.0859375, -12)"><rect></rect><foreignObject width="62.171875" height="24"><div xmlns="http://www.w3.org/1999/xhtml" style="display: table-cell; white-space: nowrap; line-height: 1.5; max-width: 200px; text-align: center;"><span class="nodeLabel"><p>Greeting</p></span></div></foreignObject></g></g><g class="node  statediagram-state" id="state-DonationIntent-20" transform="translate(527.76171875, 272)"><rect class="basic label-container" style="" rx="5" ry="5" x="-61.56640625" y="-20" width="123.1328125" height="40"></rect><g class="label" style="" transform="translate(-53.56640625, -12)"><rect></rect><foreignObject width="107.1328125" height="24"><div xmlns="http://www.w3.org/1999/xhtml" style="display: table-cell; white-space: nowrap; line-height: 1.5; max-width: 200px; text-align: center;"><span class="nodeLabel"><p>DonationIntent</p></span></div></foreignObject></g></g><g class="node  statediagram-state" id="state-ProvideDonationOptions-8" transform="translate(354.486328125, 362)"><rect class="basic label-container" style="" rx="5" ry="5" x="-93.6015625" y="-20" width="187.203125" height="40"></rect><g class="label" style="" transform="translate(-85.6015625, -12)"><rect></rect><foreignObject width="171.203125" height="24"><div xmlns="http://www.w3.org/1999/xhtml" style="display: table-cell; white-space: nowrap; line-height: 1.5; max-width: 200px; text-align: center;"><span class="nodeLabel"><p>ProvideDonationOptions</p></span></div></foreignObject></g></g><g class="node  statediagram-state" id="state-OnlineDonation-9" transform="translate(121.001953125, 452)"><rect class="basic label-container" style="" rx="5" ry="5" x="-63.02734375" y="-20" width="126.0546875" height="40"></rect><g class="label" style="" transform="translate(-55.02734375, -12)"><rect></rect><foreignObject width="110.0546875" height="24"><div xmlns="http://www.w3.org/1999/xhtml" style="display: table-cell; white-space: nowrap; line-height: 1.5; max-width: 200px; text-align: center;"><span class="nodeLabel"><p>OnlineDonation</p></span></div></foreignObject></g></g><g class="node  statediagram-state" id="state-TempleDonation-16" transform="translate(784.474609375, 542)"><rect class="basic label-container" style="" rx="5" ry="5" x="-65.72265625" y="-20" width="131.4453125" height="40"></rect><g class="label" style="" transform="translate(-57.72265625, -12)"><rect></rect><foreignObject width="115.4453125" height="24"><div xmlns="http://www.w3.org/1999/xhtml" style="display: table-cell; white-space: nowrap; line-height: 1.5; max-width: 200px; text-align: center;"><span class="nodeLabel"><p>TempleDonation</p></span></div></foreignObject></g></g><g class="node  statediagram-state" id="state-InvalidSelection-7" transform="translate(299.912109375, 452)"><rect class="basic label-container" style="" rx="5" ry="5" x="-64.828125" y="-20" width="129.65625" height="40"></rect><g class="label" style="" transform="translate(-56.828125, -12)"><rect></rect><foreignObject width="113.65625" height="24"><div xmlns="http://www.w3.org/1999/xhtml" style="display: table-cell; white-space: nowrap; line-height: 1.5; max-width: 200px; text-align: center;"><span class="nodeLabel"><p>InvalidSelection</p></span></div></foreignObject></g></g><g class="node  statediagram-state" id="state-RetrySelection-8" transform="translate(354.486328125, 542)"><rect class="basic label-container" style="" rx="5" ry="5" x="-59.93359375" y="-20" width="119.8671875" height="40"></rect><g class="label" style="" transform="translate(-51.93359375, -12)"><rect></rect><foreignObject width="103.8671875" height="24"><div xmlns="http://www.w3.org/1999/xhtml" style="display: table-cell; white-space: nowrap; line-height: 1.5; max-width: 200px; text-align: center;"><span class="nodeLabel"><p>RetrySelection</p></span></div></foreignObject></g></g><g class="node  statediagram-state" id="state-PaymentGateway-13" transform="translate(121.001953125, 542)"><rect class="basic label-container" style="" rx="5" ry="5" x="-70.03125" y="-20" width="140.0625" height="40"></rect><g class="label" style="" transform="translate(-62.03125, -12)"><rect></rect><foreignObject width="124.0625" height="24"><div xmlns="http://www.w3.org/1999/xhtml" style="display: table-cell; white-space: nowrap; line-height: 1.5; max-width: 200px; text-align: center;"><span class="nodeLabel"><p>PaymentGateway</p></span></div></foreignObject></g></g><g class="node  statediagram-state" id="state-PaymentSuccess-17" transform="translate(583.849609375, 632)"><rect class="basic label-container" style="" rx="5" ry="5" x="-65.76171875" y="-20" width="131.5234375" height="40"></rect><g class="label" style="" transform="translate(-57.76171875, -12)"><rect></rect><foreignObject width="115.5234375" height="24"><div xmlns="http://www.w3.org/1999/xhtml" style="display: table-cell; white-space: nowrap; line-height: 1.5; max-width: 200px; text-align: center;"><span class="nodeLabel"><p>PaymentSuccess</p></span></div></foreignObject></g></g><g class="node  statediagram-state" id="state-PaymentFailure-12" transform="translate(71.66796875, 632)"><rect class="basic label-container" style="" rx="5" ry="5" x="-63.66796875" y="-20" width="127.3359375" height="40"></rect><g class="label" style="" transform="translate(-55.66796875, -12)"><rect></rect><foreignObject width="111.3359375" height="24"><div xmlns="http://www.w3.org/1999/xhtml" style="display: table-cell; white-space: nowrap; line-height: 1.5; max-width: 200px; text-align: center;"><span class="nodeLabel"><p>PaymentFailure</p></span></div></foreignObject></g></g><g class="node  statediagram-state" id="state-RetryPayment-14" transform="translate(121.001953125, 722)"><rect class="basic label-container" style="" rx="5" ry="5" x="-57.703125" y="-20" width="115.40625" height="40"></rect><g class="label" style="" transform="translate(-49.703125, -12)"><rect></rect><foreignObject width="99.40625" height="24"><div xmlns="http://www.w3.org/1999/xhtml" style="display: table-cell; white-space: nowrap; line-height: 1.5; max-width: 200px; text-align: center;"><span class="nodeLabel"><p>RetryPayment</p></span></div></foreignObject></g></g><g class="node  statediagram-state" id="state-RollbackDonationState-15" transform="translate(324.14453125, 836)"><rect class="basic label-container" style="" rx="5" ry="5" x="-88.6484375" y="-20" width="177.296875" height="40"></rect><g class="label" style="" transform="translate(-80.6484375, -12)"><rect></rect><foreignObject width="161.296875" height="24"><div xmlns="http://www.w3.org/1999/xhtml" style="display: table-cell; white-space: nowrap; line-height: 1.5; max-width: 200px; text-align: center;"><span class="nodeLabel"><p>RollbackDonationState</p></span></div></foreignObject></g></g><g class="node  statediagram-state" id="state-ProvideTempleDetails-18" transform="translate(784.474609375, 632)"><rect class="basic label-container" style="" rx="5" ry="5" x="-84.86328125" y="-20" width="169.7265625" height="40"></rect><g class="label" style="" transform="translate(-76.86328125, -12)"><rect></rect><foreignObject width="153.7265625" height="24"><div xmlns="http://www.w3.org/1999/xhtml" style="display: table-cell; white-space: nowrap; line-height: 1.5; max-width: 200px; text-align: center;"><span class="nodeLabel"><p>ProvideTempleDetails</p></span></div></foreignObject></g></g><g class="node  statediagram-state" id="state-ConfirmationMessage-19" transform="translate(737.8828125, 722)"><rect class="basic label-container" style="" rx="5" ry="5" x="-83.85546875" y="-20" width="167.7109375" height="40"></rect><g class="label" style="" transform="translate(-75.85546875, -12)"><rect></rect><foreignObject width="151.7109375" height="24"><div xmlns="http://www.w3.org/1999/xhtml" style="display: table-cell; white-space: nowrap; line-height: 1.5; max-width: 200px; text-align: center;"><span class="nodeLabel"><p>ConfirmationMessage</p></span></div></foreignObject></g></g><g class="node  statediagram-state" id="state-AskMoreHelp-21" transform="translate(797.814453125, 836)"><rect class="basic label-container" style="" rx="5" ry="5" x="-53.84765625" y="-20" width="107.6953125" height="40"></rect><g class="label" style="" transform="translate(-45.84765625, -12)"><rect></rect><foreignObject width="91.6953125" height="24"><div xmlns="http://www.w3.org/1999/xhtml" style="display: table-cell; white-space: nowrap; line-height: 1.5; max-width: 200px; text-align: center;"><span class="nodeLabel"><p>AskMoreHelp</p></span></div></foreignObject></g></g><g class="node  statediagram-state" id="state-EndSession-22" transform="translate(797.814453125, 950)"><rect class="basic label-container" style="" rx="5" ry="5" x="-46.74609375" y="-20" width="93.4921875" height="40"></rect><g class="label" style="" transform="translate(-38.74609375, -12)"><rect></rect><foreignObject width="77.4921875" height="24"><div xmlns="http://www.w3.org/1999/xhtml" style="display: table-cell; white-space: nowrap; line-height: 1.5; max-width: 200px; text-align: center;"><span class="nodeLabel"><p>EndSession</p></span></div></foreignObject></g></g><g class="node default" id="state-root_end-22" transform="translate(797.814453125, 1027)"><g><path d="M7 0 C7 0.40517908122283747, 6.964012880168563 0.816513743121899, 6.893654271085456 1.2155372436685123 C6.823295662002349 1.6145607442151257, 6.716427752933756 2.013397210557766, 6.5778483455013586 2.394141003279681 C6.439268938068961 2.7748847960015954, 6.26476736710249 3.149104622578984, 6.062177826491071 3.4999999999999996 C5.859588285879653 3.8508953774210153, 5.622755194947063 4.189128084166967, 5.362311101832846 4.499513267805774 C5.10186700871863 4.809898451444582, 4.809898451444583 5.10186700871863, 4.499513267805775 5.362311101832846 C4.189128084166968 5.622755194947063, 3.8508953774210166 5.859588285879652, 3.500000000000001 6.06217782649107 C3.149104622578985 6.264767367102489, 2.7748847960015963 6.439268938068961, 2.3941410032796817 6.5778483455013586 C2.013397210557767 6.716427752933756, 1.6145607442151264 6.823295662002349, 1.2155372436685128 6.893654271085456 C0.8165137431218992 6.964012880168563, 0.4051790812228379 7, 4.286263797015736e-16 7 C-0.405179081222837 7, -0.8165137431218985 6.964012880168563, -1.2155372436685121 6.893654271085456 C-1.6145607442151257 6.823295662002349, -2.0133972105577667 6.716427752933756, -2.394141003279681 6.5778483455013586 C-2.774884796001595 6.439268938068961, -3.149104622578983 6.26476736710249, -3.4999999999999982 6.062177826491071 C-3.8508953774210135 5.859588285879653, -4.189128084166966 5.6227551949470636, -4.499513267805773 5.362311101832848 C-4.809898451444581 5.101867008718632, -5.101867008718628 4.809898451444586, -5.3623111018328435 4.499513267805779 C-5.622755194947059 4.189128084166971, -5.859588285879649 3.8508953774210206, -6.062177826491068 3.5000000000000053 C-6.264767367102486 3.14910462257899, -6.439268938068958 2.774884796001602, -6.577848345501356 2.394141003279688 C-6.716427752933754 2.0133972105577738, -6.823295662002347 1.614560744215134, -6.893654271085454 1.215537243668521 C-6.9640128801685615 0.816513743121908, -6.999999999999999 0.4051790812228472, -7 1.0183126166254463e-14 C-7.000000000000001 -0.40517908122282686, -6.964012880168565 -0.8165137431218878, -6.893654271085459 -1.215537243668501 C-6.823295662002352 -1.6145607442151142, -6.716427752933759 -2.0133972105577542, -6.577848345501363 -2.394141003279669 C-6.439268938068967 -2.7748847960015834, -6.264767367102496 -3.149104622578972, -6.062177826491078 -3.4999999999999876 C-5.859588285879661 -3.8508953774210033, -5.6227551949470715 -4.1891280841669545, -5.362311101832856 -4.499513267805763 C-5.10186700871864 -4.809898451444571, -4.809898451444594 -5.10186700871862, -4.499513267805787 -5.362311101832836 C-4.189128084166979 -5.622755194947053, -3.850895377421028 -5.859588285879643, -3.5000000000000133 -6.062177826491062 C-3.1491046225789985 -6.264767367102482, -2.774884796001611 -6.439268938068954, -2.3941410032796973 -6.577848345501353 C-2.0133972105577835 -6.716427752933752, -1.6145607442151435 -6.823295662002345, -1.2155372436685306 -6.893654271085453 C-0.8165137431219176 -6.9640128801685615, -0.40517908122285695 -6.999999999999999, -1.9937625952807352e-14 -7 C0.4051790812228171 -7.000000000000001, 0.8165137431218781 -6.964012880168565, 1.2155372436684913 -6.89365427108546 C1.6145607442151044 -6.823295662002354, 2.013397210557745 -6.716427752933763, 2.3941410032796595 -6.5778483455013665 C2.774884796001574 -6.43926893806897, 3.149104622578963 -6.2647673671025, 3.499999999999979 -6.062177826491083 C3.8508953774209953 -5.859588285879665, 4.189128084166947 -5.622755194947077, 4.499513267805756 -5.362311101832862 C4.809898451444564 -5.1018670087186475, 5.101867008718613 -4.809898451444602, 5.362311101832829 -4.499513267805796 C5.622755194947046 -4.189128084166989, 5.859588285879637 -3.8508953774210393, 6.062177826491056 -3.500000000000025 C6.2647673671024755 -3.1491046225790105, 6.439268938068949 -2.774884796001623, 6.577848345501348 -2.3941410032797092 C6.716427752933747 -2.0133972105577955, 6.823295662002342 -1.6145607442151562, 6.893654271085451 -1.2155372436685434 C6.96401288016856 -0.8165137431219307, 6.982275711847575 -0.2025895406114567, 7 -3.2800750208310675e-14 C7.017724288152425 0.2025895406113911, 7.017724288152424 -0.2025895406114242, 7 0" stroke="none" stroke-width="0" fill="#1f2020" style=""></path><path d="M7 0 C7 0.40517908122283747, 6.964012880168563 0.816513743121899, 6.893654271085456 1.2155372436685123 C6.823295662002349 1.6145607442151257, 6.716427752933756 2.013397210557766, 6.5778483455013586 2.394141003279681 C6.439268938068961 2.7748847960015954, 6.26476736710249 3.149104622578984, 6.062177826491071 3.4999999999999996 C5.859588285879653 3.8508953774210153, 5.622755194947063 4.189128084166967, 5.362311101832846 4.499513267805774 C5.10186700871863 4.809898451444582, 4.809898451444583 5.10186700871863, 4.499513267805775 5.362311101832846 C4.189128084166968 5.622755194947063, 3.8508953774210166 5.859588285879652, 3.500000000000001 6.06217782649107 C3.149104622578985 6.264767367102489, 2.7748847960015963 6.439268938068961, 2.3941410032796817 6.5778483455013586 C2.013397210557767 6.716427752933756, 1.6145607442151264 6.823295662002349, 1.2155372436685128 6.893654271085456 C0.8165137431218992 6.964012880168563, 0.4051790812228379 7, 4.286263797015736e-16 7 C-0.405179081222837 7, -0.8165137431218985 6.964012880168563, -1.2155372436685121 6.893654271085456 C-1.6145607442151257 6.823295662002349, -2.0133972105577667 6.716427752933756, -2.394141003279681 6.5778483455013586 C-2.774884796001595 6.439268938068961, -3.149104622578983 6.26476736710249, -3.4999999999999982 6.062177826491071 C-3.8508953774210135 5.859588285879653, -4.189128084166966 5.6227551949470636, -4.499513267805773 5.362311101832848 C-4.809898451444581 5.101867008718632, -5.101867008718628 4.809898451444586, -5.3623111018328435 4.499513267805779 C-5.622755194947059 4.189128084166971, -5.859588285879649 3.8508953774210206, -6.062177826491068 3.5000000000000053 C-6.264767367102486 3.14910462257899, -6.439268938068958 2.774884796001602, -6.577848345501356 2.394141003279688 C-6.716427752933754 2.0133972105577738, -6.823295662002347 1.614560744215134, -6.893654271085454 1.215537243668521 C-6.9640128801685615 0.816513743121908, -6.999999999999999 0.4051790812228472, -7 1.0183126166254463e-14 C-7.000000000000001 -0.40517908122282686, -6.964012880168565 -0.8165137431218878, -6.893654271085459 -1.215537243668501 C-6.823295662002352 -1.6145607442151142, -6.716427752933759 -2.0133972105577542, -6.577848345501363 -2.394141003279669 C-6.439268938068967 -2.7748847960015834, -6.264767367102496 -3.149104622578972, -6.062177826491078 -3.4999999999999876 C-5.859588285879661 -3.8508953774210033, -5.6227551949470715 -4.1891280841669545, -5.362311101832856 -4.499513267805763 C-5.10186700871864 -4.809898451444571, -4.809898451444594 -5.10186700871862, -4.499513267805787 -5.362311101832836 C-4.189128084166979 -5.622755194947053, -3.850895377421028 -5.859588285879643, -3.5000000000000133 -6.062177826491062 C-3.1491046225789985 -6.264767367102482, -2.774884796001611 -6.439268938068954, -2.3941410032796973 -6.577848345501353 C-2.0133972105577835 -6.716427752933752, -1.6145607442151435 -6.823295662002345, -1.2155372436685306 -6.893654271085453 C-0.8165137431219176 -6.9640128801685615, -0.40517908122285695 -6.999999999999999, -1.9937625952807352e-14 -7 C0.4051790812228171 -7.000000000000001, 0.8165137431218781 -6.964012880168565, 1.2155372436684913 -6.89365427108546 C1.6145607442151044 -6.823295662002354, 2.013397210557745 -6.716427752933763, 2.3941410032796595 -6.5778483455013665 C2.774884796001574 -6.43926893806897, 3.149104622578963 -6.2647673671025, 3.499999999999979 -6.062177826491083 C3.8508953774209953 -5.859588285879665, 4.189128084166947 -5.622755194947077, 4.499513267805756 -5.362311101832862 C4.809898451444564 -5.1018670087186475, 5.101867008718613 -4.809898451444602, 5.362311101832829 -4.499513267805796 C5.622755194947046 -4.189128084166989, 5.859588285879637 -3.8508953774210393, 6.062177826491056 -3.500000000000025 C6.2647673671024755 -3.1491046225790105, 6.439268938068949 -2.774884796001623, 6.577848345501348 -2.3941410032797092 C6.716427752933747 -2.0133972105577955, 6.823295662002342 -1.6145607442151562, 6.893654271085451 -1.2155372436685434 C6.96401288016856 -0.8165137431219307, 6.982275711847575 -0.2025895406114567, 7 -3.2800750208310675e-14 C7.017724288152425 0.2025895406113911, 7.017724288152424 -0.2025895406114242, 7 0" stroke="lightgrey" stroke-width="2" fill="none" stroke-dasharray="0 0" style=""></path><g><path d="M2.5 0 C2.5 0.14470681472244193, 2.487147457203058 0.29161205111496386, 2.46201938253052 0.4341204441673258 C2.436891307857982 0.5766288372196877, 2.3987241974763416 0.7190704323420595, 2.3492315519647713 0.8550503583141718 C2.299738906453201 0.991030284286284, 2.2374169168223177 1.124680222349637, 2.165063509461097 1.2499999999999998 C2.092710102099876 1.3753197776503625, 2.0081268553382365 1.496117172916774, 1.915111107797445 1.6069690242163481 C1.8220953602566536 1.7178208755159223, 1.7178208755159226 1.8220953602566536, 1.6069690242163484 1.915111107797445 C1.4961171729167742 2.0081268553382365, 1.375319777650363 2.0927101020998755, 1.2500000000000002 2.1650635094610964 C1.1246802223496375 2.2374169168223172, 0.9910302842862845 2.2997389064532, 0.8550503583141721 2.349231551964771 C0.7190704323420597 2.3987241974763416, 0.576628837219688 2.436891307857982, 0.43412044416732604 2.46201938253052 C0.291612051114964 2.487147457203058, 0.14470681472244212 2.5, 1.5308084989341916e-16 2.5 C-0.1447068147224418 2.5, -0.2916120511149638 2.487147457203058, -0.43412044416732576 2.46201938253052 C-0.5766288372196877 2.436891307857982, -0.7190704323420595 2.3987241974763416, -0.8550503583141718 2.3492315519647713 C-0.991030284286284 2.299738906453201, -1.124680222349637 2.2374169168223177, -1.2499999999999996 2.165063509461097 C-1.375319777650362 2.092710102099876, -1.4961171729167733 2.008126855338237, -1.6069690242163475 1.9151111077974459 C-1.7178208755159217 1.8220953602566548, -1.822095360256653 1.7178208755159234, -1.9151111077974443 1.6069690242163495 C-2.0081268553382357 1.4961171729167755, -2.0927101020998746 1.3753197776503645, -2.1650635094610955 1.250000000000002 C-2.2374169168223164 1.1246802223496395, -2.2997389064531992 0.9910302842862865, -2.34923155196477 0.8550503583141743 C-2.3987241974763407 0.7190704323420621, -2.436891307857981 0.5766288372196907, -2.4620193825305194 0.434120444167329 C-2.487147457203058 0.29161205111496724, -2.5 0.14470681472244545, -2.5 3.636830773662308e-15 C-2.5 -0.14470681472243818, -2.4871474572030587 -0.2916120511149599, -2.4620193825305208 -0.4341204441673218 C-2.436891307857983 -0.5766288372196837, -2.398724197476343 -0.7190704323420553, -2.3492315519647726 -0.8550503583141675 C-2.2997389064532023 -0.9910302842862798, -2.23741691682232 -1.1246802223496328, -2.165063509461099 -1.2499999999999956 C-2.092710102099878 -1.3753197776503583, -2.00812685533824 -1.4961171729167695, -1.9151111077974488 -1.606969024216344 C-1.8220953602566576 -1.7178208755159183, -1.7178208755159263 -1.82209536025665, -1.6069690242163523 -1.9151111077974416 C-1.4961171729167784 -2.0081268553382334, -1.3753197776503672 -2.0927101020998724, -1.2500000000000047 -2.1650635094610937 C-1.1246802223496422 -2.237416916822315, -0.9910302842862897 -2.299738906453198, -0.8550503583141776 -2.3492315519647686 C-0.7190704323420656 -2.3987241974763394, -0.5766288372196942 -2.4368913078579806, -0.43412044416733236 -2.462019382530519 C-0.29161205111497057 -2.4871474572030574, -0.1447068147224489 -2.4999999999999996, -7.120580697431198e-15 -2.5 C0.14470681472243463 -2.5000000000000004, 0.29161205111495647 -2.487147457203059, 0.4341204441673183 -2.4620193825305217 C0.5766288372196802 -2.436891307857984, 0.7190704323420518 -2.3987241974763442, 0.8550503583141642 -2.349231551964774 C0.9910302842862766 -2.2997389064532037, 1.1246802223496295 -2.2374169168223212, 1.2499999999999925 -2.165063509461101 C1.3753197776503554 -2.0927101020998804, 1.4961171729167668 -2.008126855338242, 1.6069690242163412 -1.915111107797451 C1.7178208755159157 -1.82209536025666, 1.8220953602566472 -1.7178208755159294, 1.915111107797439 -1.6069690242163557 C2.0081268553382308 -1.496117172916782, 2.09271010209987 -1.3753197776503712, 2.1650635094610915 -1.2500000000000089 C2.237416916822313 -1.1246802223496466, 2.299738906453196 -0.9910302842862939, 2.3492315519647673 -0.855050358314182 C2.3987241974763385 -0.71907043234207, 2.4368913078579792 -0.5766288372196986, 2.462019382530518 -0.4341204441673369 C2.487147457203057 -0.29161205111497523, 2.4936698970884197 -0.07235340736123454, 2.5 -1.1714553645825241e-14 C2.5063301029115803 0.07235340736121111, 2.50633010291158 -0.07235340736122292, 2.5 0" stroke="none" stroke-width="0" fill="#ccc" style=""></path><path d="M2.5 0 C2.5 0.14470681472244193, 2.487147457203058 0.29161205111496386, 2.46201938253052 0.4341204441673258 C2.436891307857982 0.5766288372196877, 2.3987241974763416 0.7190704323420595, 2.3492315519647713 0.8550503583141718 C2.299738906453201 0.991030284286284, 2.2374169168223177 1.124680222349637, 2.165063509461097 1.2499999999999998 C2.092710102099876 1.3753197776503625, 2.0081268553382365 1.496117172916774, 1.915111107797445 1.6069690242163481 C1.8220953602566536 1.7178208755159223, 1.7178208755159226 1.8220953602566536, 1.6069690242163484 1.915111107797445 C1.4961171729167742 2.0081268553382365, 1.375319777650363 2.0927101020998755, 1.2500000000000002 2.1650635094610964 C1.1246802223496375 2.2374169168223172, 0.9910302842862845 2.2997389064532, 0.8550503583141721 2.349231551964771 C0.7190704323420597 2.3987241974763416, 0.576628837219688 2.436891307857982, 0.43412044416732604 2.46201938253052 C0.291612051114964 2.487147457203058, 0.14470681472244212 2.5, 1.5308084989341916e-16 2.5 C-0.1447068147224418 2.5, -0.2916120511149638 2.487147457203058, -0.43412044416732576 2.46201938253052 C-0.5766288372196877 2.436891307857982, -0.7190704323420595 2.3987241974763416, -0.8550503583141718 2.3492315519647713 C-0.991030284286284 2.299738906453201, -1.124680222349637 2.2374169168223177, -1.2499999999999996 2.165063509461097 C-1.375319777650362 2.092710102099876, -1.4961171729167733 2.008126855338237, -1.6069690242163475 1.9151111077974459 C-1.7178208755159217 1.8220953602566548, -1.822095360256653 1.7178208755159234, -1.9151111077974443 1.6069690242163495 C-2.0081268553382357 1.4961171729167755, -2.0927101020998746 1.3753197776503645, -2.1650635094610955 1.250000000000002 C-2.2374169168223164 1.1246802223496395, -2.2997389064531992 0.9910302842862865, -2.34923155196477 0.8550503583141743 C-2.3987241974763407 0.7190704323420621, -2.436891307857981 0.5766288372196907, -2.4620193825305194 0.434120444167329 C-2.487147457203058 0.29161205111496724, -2.5 0.14470681472244545, -2.5 3.636830773662308e-15 C-2.5 -0.14470681472243818, -2.4871474572030587 -0.2916120511149599, -2.4620193825305208 -0.4341204441673218 C-2.436891307857983 -0.5766288372196837, -2.398724197476343 -0.7190704323420553, -2.3492315519647726 -0.8550503583141675 C-2.2997389064532023 -0.9910302842862798, -2.23741691682232 -1.1246802223496328, -2.165063509461099 -1.2499999999999956 C-2.092710102099878 -1.3753197776503583, -2.00812685533824 -1.4961171729167695, -1.9151111077974488 -1.606969024216344 C-1.8220953602566576 -1.7178208755159183, -1.7178208755159263 -1.82209536025665, -1.6069690242163523 -1.9151111077974416 C-1.4961171729167784 -2.0081268553382334, -1.3753197776503672 -2.0927101020998724, -1.2500000000000047 -2.1650635094610937 C-1.1246802223496422 -2.237416916822315, -0.9910302842862897 -2.299738906453198, -0.8550503583141776 -2.3492315519647686 C-0.7190704323420656 -2.3987241974763394, -0.5766288372196942 -2.4368913078579806, -0.43412044416733236 -2.462019382530519 C-0.29161205111497057 -2.4871474572030574, -0.1447068147224489 -2.4999999999999996, -7.120580697431198e-15 -2.5 C0.14470681472243463 -2.5000000000000004, 0.29161205111495647 -2.487147457203059, 0.4341204441673183 -2.4620193825305217 C0.5766288372196802 -2.436891307857984, 0.7190704323420518 -2.3987241974763442, 0.8550503583141642 -2.349231551964774 C0.9910302842862766 -2.2997389064532037, 1.1246802223496295 -2.2374169168223212, 1.2499999999999925 -2.165063509461101 C1.3753197776503554 -2.0927101020998804, 1.4961171729167668 -2.008126855338242, 1.6069690242163412 -1.915111107797451 C1.7178208755159157 -1.82209536025666, 1.8220953602566472 -1.7178208755159294, 1.915111107797439 -1.6069690242163557 C2.0081268553382308 -1.496117172916782, 2.09271010209987 -1.3753197776503712, 2.1650635094610915 -1.2500000000000089 C2.237416916822313 -1.1246802223496466, 2.299738906453196 -0.9910302842862939, 2.3492315519647673 -0.855050358314182 C2.3987241974763385 -0.71907043234207, 2.4368913078579792 -0.5766288372196986, 2.462019382530518 -0.4341204441673369 C2.487147457203057 -0.29161205111497523, 2.4936698970884197 -0.07235340736123454, 2.5 -1.1714553645825241e-14 C2.5063301029115803 0.07235340736121111, 2.50633010291158 -0.07235340736122292, 2.5 0" stroke="#ccc" stroke-width="2" fill="none" stroke-dasharray="0 0" style=""></path></g></g></g></g></g></g></g></svg>