<?xml version="1.0" encoding="UTF-8"?>
<?xml-stylesheet href="https://cdnjs.cloudflare.com/ajax/libs/font-awesome/6.7.2/css/all.min.css" type="text/css"?>
<svg id="graph-18" width="100%" xmlns="http://www.w3.org/2000/svg" class="statediagram" style="overflow: hidden; max-width: 100%; touch-action: none; user-select: none; -webkit-user-drag: none; -webkit-tap-highlight-color: rgba(0, 0, 0, 0); background-color: rgb(255, 255, 255);" role="graphics-document document" aria-roledescription="stateDiagram" height="100%" xmlns:xlink="http://www.w3.org/1999/xlink" xmlns:ev="http://www.w3.org/2001/xml-events"><g id="viewport-20260324183855906" class="svg-pan-zoom_viewport" transform="matrix(0.6491293759068097,0,0,0.6491293759068097,226.3189767322939,29.36089853389423)" style="transform: matrix(0.649129, 0, 0, 0.649129, 226.319, 29.3609);"><style>#graph-18{font-family:"trebuchet ms",verdana,arial,sans-serif;font-size:16px;fill:#333;}@keyframes edge-animation-frame{from{stroke-dashoffset:0;}}@keyframes dash{to{stroke-dashoffset:0;}}#graph-18 .edge-animation-slow{stroke-dasharray:9,5!important;stroke-dashoffset:900;animation:dash 50s linear infinite;stroke-linecap:round;}#graph-18 .edge-animation-fast{stroke-dasharray:9,5!important;stroke-dashoffset:900;animation:dash 20s linear infinite;stroke-linecap:round;}#graph-18 .error-icon{fill:#552222;}#graph-18 .error-text{fill:#552222;stroke:#552222;}#graph-18 .edge-thickness-normal{stroke-width:1px;}#graph-18 .edge-thickness-thick{stroke-width:3.5px;}#graph-18 .edge-pattern-solid{stroke-dasharray:0;}#graph-18 .edge-thickness-invisible{stroke-width:0;fill:none;}#graph-18 .edge-pattern-dashed{stroke-dasharray:3;}#graph-18 .edge-pattern-dotted{stroke-dasharray:2;}#graph-18 .marker{fill:#333333;stroke:#333333;}#graph-18 .marker.cross{stroke:#333333;}#graph-18 svg{font-family:"trebuchet ms",verdana,arial,sans-serif;font-size:16px;}#graph-18 p{margin:0;}#graph-18 defs #statediagram-barbEnd{fill:#333333;stroke:#333333;}#graph-18 g.stateGroup text{fill:#9370DB;stroke:none;font-size:10px;}#graph-18 g.stateGroup text{fill:#333;stroke:none;font-size:10px;}#graph-18 g.stateGroup .state-title{font-weight:bolder;fill:#131300;}#graph-18 g.stateGroup rect{fill:#ECECFF;stroke:#9370DB;}#graph-18 g.stateGroup line{stroke:#333333;stroke-width:1;}#graph-18 .transition{stroke:#333333;stroke-width:1;fill:none;}#graph-18 .stateGroup .composit{fill:white;border-bottom:1px;}#graph-18 .stateGroup .alt-composit{fill:#e0e0e0;border-bottom:1px;}#graph-18 .state-note{stroke:#aaaa33;fill:#fff5ad;}#graph-18 .state-note text{fill:black;stroke:none;font-size:10px;}#graph-18 .stateLabel .box{stroke:none;stroke-width:0;fill:#ECECFF;opacity:0.5;}#graph-18 .edgeLabel .label rect{fill:#ECECFF;opacity:0.5;}#graph-18 .edgeLabel{background-color:rgba(232,232,232, 0.8);text-align:center;}#graph-18 .edgeLabel p{background-color:rgba(232,232,232, 0.8);}#graph-18 .edgeLabel rect{opacity:0.5;background-color:rgba(232,232,232, 0.8);fill:rgba(232,232,232, 0.8);}#graph-18 .edgeLabel .label text{fill:#333;}#graph-18 .label div .edgeLabel{color:#333;}#graph-18 .stateLabel text{fill:#131300;font-size:10px;font-weight:bold;}#graph-18 .node circle.state-start{fill:#333333;stroke:#333333;}#graph-18 .node .fork-join{fill:#333333;stroke:#333333;}#graph-18 .node circle.state-end{fill:#9370DB;stroke:white;stroke-width:1.5;}#graph-18 .end-state-inner{fill:white;stroke-width:1.5;}#graph-18 .node rect{fill:#ECECFF;stroke:#9370DB;stroke-width:1px;}#graph-18 .node polygon{fill:#ECECFF;stroke:#9370DB;stroke-width:1px;}#graph-18 #statediagram-barbEnd{fill:#333333;}#graph-18 .statediagram-cluster rect{fill:#ECECFF;stroke:#9370DB;stroke-width:1px;}#graph-18 .cluster-label,#graph-18 .nodeLabel{color:#131300;}#graph-18 .statediagram-cluster rect.outer{rx:5px;ry:5px;}#graph-18 .statediagram-state .divider{stroke:#9370DB;}#graph-18 .statediagram-state .title-state{rx:5px;ry:5px;}#graph-18 .statediagram-cluster.statediagram-cluster .inner{fill:white;}#graph-18 .statediagram-cluster.statediagram-cluster-alt .inner{fill:#f0f0f0;}#graph-18 .statediagram-cluster .inner{rx:0;ry:0;}#graph-18 .statediagram-state rect.basic{rx:5px;ry:5px;}#graph-18 .statediagram-state rect.divider{stroke-dasharray:10,10;fill:#f0f0f0;}#graph-18 .note-edge{stroke-dasharray:5;}#graph-18 .statediagram-note rect{fill:#fff5ad;stroke:#aaaa33;stroke-width:1px;rx:0;ry:0;}#graph-18 .statediagram-note rect{fill:#fff5ad;stroke:#aaaa33;stroke-width:1px;rx:0;ry:0;}#graph-18 .statediagram-note text{fill:black;}#graph-18 .statediagram-note .nodeLabel{color:black;}#graph-18 .statediagram .edgeLabel{color:red;}#graph-18 #dependencyStart,#graph-18 #dependencyEnd{fill:#333333;stroke:#333333;stroke-width:1;}#graph-18 .statediagramTitleText{text-anchor:middle;font-size:18px;fill:#333;}#graph-18 :root{--mermaid-font-family:"trebuchet ms",verdana,arial,sans-serif;}</style><g><defs><marker id="graph-18_stateDiagram-barbEnd" refX="19" refY="7" markerWidth="20" markerHeight="14" markerUnits="userSpaceOnUse" orient="auto"><path d="M 19,7 L9,13 L14,7 L9,1 Z"></path></marker></defs><g class="root"><g class="clusters"></g><g class="edgePaths"><path d="M437.666,22L437.666,26.167C437.666,30.333,437.666,38.667,437.666,47C437.666,55.333,437.666,63.667,437.666,67.833L437.666,72" id="edge0" class="edge-thickness-normal edge-pattern-solid transition" style="fill:none;;;fill:none" data-edge="true" data-et="edge" data-id="edge0" data-points="W3sieCI6NDM3LjY2NjAxNTYyNSwieSI6MjJ9LHsieCI6NDM3LjY2NjAxNTYyNSwieSI6NDd9LHsieCI6NDM3LjY2NjAxNTYyNSwieSI6NzJ9XQ==" marker-end="url(#graph-18_stateDiagram-barbEnd)"></path><path d="M437.666,112L437.666,116.167C437.666,120.333,437.666,128.667,437.666,137C437.666,145.333,437.666,153.667,437.666,157.833L437.666,162" id="edge1" class="edge-thickness-normal edge-pattern-solid transition" style="fill:none;;;fill:none" data-edge="true" data-et="edge" data-id="edge1" data-points="W3sieCI6NDM3LjY2NjAxNTYyNSwieSI6MTEyfSx7IngiOjQzNy42NjYwMTU2MjUsInkiOjEzN30seyJ4Ijo0MzcuNjY2MDE1NjI1LCJ5IjoxNjJ9XQ==" marker-end="url(#graph-18_stateDiagram-barbEnd)"></path><path d="M437.666,202L437.666,206.167C437.666,210.333,437.666,218.667,437.666,227C437.666,235.333,437.666,243.667,437.666,247.833L437.666,252" id="edge2" class="edge-thickness-normal edge-pattern-solid transition" style="fill:none;;;fill:none" data-edge="true" data-et="edge" data-id="edge2" data-points="W3sieCI6NDM3LjY2NjAxNTYyNSwieSI6MjAyfSx7IngiOjQzNy42NjYwMTU2MjUsInkiOjIyN30seyJ4Ijo0MzcuNjY2MDE1NjI1LCJ5IjoyNTJ9XQ==" marker-end="url(#graph-18_stateDiagram-barbEnd)"></path><path d="M369.052,292L354.758,296.167C340.463,300.333,311.874,308.667,297.58,317C283.285,325.333,283.285,333.667,283.285,337.833L283.285,342" id="edge3" class="edge-thickness-normal edge-pattern-solid transition" style="fill:none;;;fill:none" data-edge="true" data-et="edge" data-id="edge3" data-points="W3sieCI6MzY5LjA1MjMwMDM0NzIyMjIzLCJ5IjoyOTJ9LHsieCI6MjgzLjI4NTE1NjI1LCJ5IjozMTd9LHsieCI6MjgzLjI4NTE1NjI1LCJ5IjozNDJ9XQ==" marker-end="url(#graph-18_stateDiagram-barbEnd)"></path><path d="M247.039,382L239.487,386.167C231.936,390.333,216.833,398.667,209.282,407C201.73,415.333,201.73,423.667,201.73,427.833L201.73,432" id="edge4" class="edge-thickness-normal edge-pattern-solid transition" style="fill:none;;;fill:none" data-edge="true" data-et="edge" data-id="edge4" data-points="W3sieCI6MjQ3LjAzODYyODQ3MjIyMjIzLCJ5IjozODJ9LHsieCI6MjAxLjczMDQ2ODc1LCJ5Ijo0MDd9LHsieCI6MjAxLjczMDQ2ODc1LCJ5Ijo0MzJ9XQ==" marker-end="url(#graph-18_stateDiagram-barbEnd)"></path><path d="M319.532,382L327.083,386.167C334.634,390.333,349.737,398.667,357.288,407C364.84,415.333,364.84,423.667,364.84,427.833L364.84,432" id="edge5" class="edge-thickness-normal edge-pattern-solid transition" style="fill:none;;;fill:none" data-edge="true" data-et="edge" data-id="edge5" data-points="W3sieCI6MzE5LjUzMTY4NDAyNzc3Nzc3LCJ5IjozODJ9LHsieCI6MzY0LjgzOTg0Mzc1LCJ5Ijo0MDd9LHsieCI6MzY0LjgzOTg0Mzc1LCJ5Ijo0MzJ9XQ==" marker-end="url(#graph-18_stateDiagram-barbEnd)"></path><path d="M204.496,378.658L182.154,383.381C159.811,388.105,115.126,397.553,92.784,409.776C70.441,422,70.441,437,70.441,454C70.441,471,70.441,490,70.441,509C70.441,528,70.441,547,70.441,564C70.441,581,70.441,596,70.441,607.667C70.441,619.333,70.441,627.667,70.441,631.833L70.441,636" id="edge6" class="edge-thickness-normal edge-pattern-solid transition" style="fill:none;;;fill:none" data-edge="true" data-et="edge" data-id="edge6" data-points="W3sieCI6MjA0LjQ5NjA5Mzc1LCJ5IjozNzguNjU3Nzk2MjEyMDF9LHsieCI6NzAuNDQxNDA2MjUsInkiOjQwN30seyJ4Ijo3MC40NDE0MDYyNSwieSI6NDUyfSx7IngiOjcwLjQ0MTQwNjI1LCJ5Ijo1MDl9LHsieCI6NzAuNDQxNDA2MjUsInkiOjU2Nn0seyJ4Ijo3MC40NDE0MDYyNSwieSI6NjExfSx7IngiOjcwLjQ0MTQwNjI1LCJ5Ijo2MzZ9XQ==" marker-end="url(#graph-18_stateDiagram-barbEnd)"></path><path d="M70.441,676L70.441,680.167C70.441,684.333,70.441,692.667,93.225,701.65C116.008,710.634,161.574,720.268,184.357,725.084L207.141,729.901" id="edge7" class="edge-thickness-normal edge-pattern-solid transition" style="fill:none;;;fill:none" data-edge="true" data-et="edge" data-id="edge7" data-points="W3sieCI6NzAuNDQxNDA2MjUsInkiOjY3Nn0seyJ4Ijo3MC40NDE0MDYyNSwieSI6NzAxfSx7IngiOjIwNy4xNDA2MjUsInkiOjcyOS45MDEzMTc3MjEzMzMyfV0=" marker-end="url(#graph-18_stateDiagram-barbEnd)"></path><path d="M359.43,726.786L376.461,722.488C393.493,718.191,427.556,709.595,444.588,697.798C461.619,686,461.619,671,461.619,656C461.619,641,461.619,626,461.619,611C461.619,596,461.619,581,461.619,564C461.619,547,461.619,528,461.619,509C461.619,490,461.619,471,461.619,454C461.619,437,461.619,422,445.028,410.314C428.438,398.627,395.256,390.254,378.665,386.068L362.074,381.881" id="edge8" class="edge-thickness-normal edge-pattern-solid transition" style="fill:none;;;fill:none" data-edge="true" data-et="edge" data-id="edge8" data-points="W3sieCI6MzU5LjQyOTY4NzUsInkiOjcyNi43ODYwMjk1NDg2NjU1fSx7IngiOjQ2MS42MTkxNDA2MjUsInkiOjcwMX0seyJ4Ijo0NjEuNjE5MTQwNjI1LCJ5Ijo2NTZ9LHsieCI6NDYxLjYxOTE0MDYyNSwieSI6NjExfSx7IngiOjQ2MS42MTkxNDA2MjUsInkiOjU2Nn0seyJ4Ijo0NjEuNjE5MTQwNjI1LCJ5Ijo1MDl9LHsieCI6NDYxLjYxOTE0MDYyNSwieSI6NDUyfSx7IngiOjQ2MS42MTkxNDA2MjUsInkiOjQwN30seyJ4IjozNjIuMDc0MjE4NzUsInkiOjM4MS44ODEyNzk2MzkwMn1d" marker-end="url(#graph-18_stateDiagram-barbEnd)"></path><path d="M283.285,766L283.285,772.167C283.285,778.333,283.285,790.667,283.285,803C283.285,815.333,283.285,827.667,283.285,833.833L283.285,840" id="edge9" class="edge-thickness-normal edge-pattern-solid transition" style="fill:none;;;fill:none" data-edge="true" data-et="edge" data-id="edge9" data-points="W3sieCI6MjgzLjI4NTE1NjI1LCJ5Ijo3NjZ9LHsieCI6MjgzLjI4NTE1NjI1LCJ5Ijo4MDN9LHsieCI6MjgzLjI4NTE1NjI1LCJ5Ijo4NDB9XQ==" marker-end="url(#graph-18_stateDiagram-barbEnd)"></path><path d="M201.73,472L201.73,478.167C201.73,484.333,201.73,496.667,210.554,509C219.377,521.333,237.023,533.667,245.846,539.833L254.669,546" id="edge10" class="edge-thickness-normal edge-pattern-solid transition" style="fill:none;;;fill:none" data-edge="true" data-et="edge" data-id="edge10" data-points="W3sieCI6MjAxLjczMDQ2ODc1LCJ5Ijo0NzJ9LHsieCI6MjAxLjczMDQ2ODc1LCJ5Ijo1MDl9LHsieCI6MjU0LjY2OTQ3NjQyNTQzODYsInkiOjU0Nn1d" marker-end="url(#graph-18_stateDiagram-barbEnd)"></path><path d="M364.84,472L364.84,478.167C364.84,484.333,364.84,496.667,356.017,509C347.194,521.333,329.547,533.667,320.724,539.833L311.901,546" id="edge11" class="edge-thickness-normal edge-pattern-solid transition" style="fill:none;;;fill:none" data-edge="true" data-et="edge" data-id="edge11" data-points="W3sieCI6MzY0LjgzOTg0Mzc1LCJ5Ijo0NzJ9LHsieCI6MzY0LjgzOTg0Mzc1LCJ5Ijo1MDl9LHsieCI6MzExLjkwMDgzNjA3NDU2MTQsInkiOjU0Nn1d" marker-end="url(#graph-18_stateDiagram-barbEnd)"></path><path d="M283.285,586L283.285,590.167C283.285,594.333,283.285,602.667,283.285,611C283.285,619.333,283.285,627.667,283.285,631.833L283.285,636" id="edge12" class="edge-thickness-normal edge-pattern-solid transition" style="fill:none;;;fill:none" data-edge="true" data-et="edge" data-id="edge12" data-points="W3sieCI6MjgzLjI4NTE1NjI1LCJ5Ijo1ODZ9LHsieCI6MjgzLjI4NTE1NjI1LCJ5Ijo2MTF9LHsieCI6MjgzLjI4NTE1NjI1LCJ5Ijo2MzZ9XQ==" marker-end="url(#graph-18_stateDiagram-barbEnd)"></path><path d="M283.285,676L283.285,680.167C283.285,684.333,283.285,692.667,283.285,701C283.285,709.333,283.285,717.667,283.285,721.833L283.285,726" id="edge13" class="edge-thickness-normal edge-pattern-solid transition" style="fill:none;;;fill:none" data-edge="true" data-et="edge" data-id="edge13" data-points="W3sieCI6MjgzLjI4NTE1NjI1LCJ5Ijo2NzZ9LHsieCI6MjgzLjI4NTE1NjI1LCJ5Ijo3MDF9LHsieCI6MjgzLjI4NTE1NjI1LCJ5Ijo3MjZ9XQ==" marker-end="url(#graph-18_stateDiagram-barbEnd)"></path><path d="M345.172,575.812L382.16,581.677C419.149,587.542,493.126,599.271,530.115,609.302C567.104,619.333,567.104,627.667,567.104,631.833L567.104,636" id="edge14" class="edge-thickness-normal edge-pattern-solid transition" style="fill:none;;;fill:none" data-edge="true" data-et="edge" data-id="edge14" data-points="W3sieCI6MzQ1LjE3MTg3NSwieSI6NTc1LjgxMjI2OTg5NjQzMTl9LHsieCI6NTY3LjEwMzUxNTYyNSwieSI6NjExfSx7IngiOjU2Ny4xMDM1MTU2MjUsInkiOjYzNn1d" marker-end="url(#graph-18_stateDiagram-barbEnd)"></path><path d="M283.285,880L283.285,884.167C283.285,888.333,283.285,896.667,283.285,905C283.285,913.333,283.285,921.667,283.285,925.833L283.285,930" id="edge15" class="edge-thickness-normal edge-pattern-solid transition" style="fill:none;;;fill:none" data-edge="true" data-et="edge" data-id="edge15" data-points="W3sieCI6MjgzLjI4NTE1NjI1LCJ5Ijo4ODB9LHsieCI6MjgzLjI4NTE1NjI1LCJ5Ijo5MDV9LHsieCI6MjgzLjI4NTE1NjI1LCJ5Ijo5MzB9XQ==" marker-end="url(#graph-18_stateDiagram-barbEnd)"></path><path d="M567.104,676L567.104,680.167C567.104,684.333,567.104,692.667,571.987,701C576.871,709.333,586.638,717.667,591.521,721.833L596.405,726" id="edge16" class="edge-thickness-normal edge-pattern-solid transition" style="fill:none;;;fill:none" data-edge="true" data-et="edge" data-id="edge16" data-points="W3sieCI6NTY3LjEwMzUxNTYyNSwieSI6Njc2fSx7IngiOjU2Ny4xMDM1MTU2MjUsInkiOjcwMX0seyJ4Ijo1OTYuNDA0NzMwOTAyNzc3OCwieSI6NzI2fV0=" marker-end="url(#graph-18_stateDiagram-barbEnd)"></path><path d="M643.287,726L648.17,721.833C653.054,717.667,662.821,709.333,667.704,697.667C672.588,686,672.588,671,672.588,656C672.588,641,672.588,626,672.588,611C672.588,596,672.588,581,672.588,564C672.588,547,672.588,528,672.588,509C672.588,490,672.588,471,672.588,454C672.588,437,672.588,422,672.588,407C672.588,392,672.588,377,672.588,362C672.588,347,672.588,332,644.94,319.204C617.292,306.408,561.997,295.816,534.349,290.52L506.701,285.224" id="edge17" class="edge-thickness-normal edge-pattern-solid transition" style="fill:none;;;fill:none" data-edge="true" data-et="edge" data-id="edge17" data-points="W3sieCI6NjQzLjI4NjY3NTM0NzIyMjIsInkiOjcyNn0seyJ4Ijo2NzIuNTg3ODkwNjI1LCJ5Ijo3MDF9LHsieCI6NjcyLjU4Nzg5MDYyNSwieSI6NjU2fSx7IngiOjY3Mi41ODc4OTA2MjUsInkiOjYxMX0seyJ4Ijo2NzIuNTg3ODkwNjI1LCJ5Ijo1NjZ9LHsieCI6NjcyLjU4Nzg5MDYyNSwieSI6NTA5fSx7IngiOjY3Mi41ODc4OTA2MjUsInkiOjQ1Mn0seyJ4Ijo2NzIuNTg3ODkwNjI1LCJ5Ijo0MDd9LHsieCI6NjcyLjU4Nzg5MDYyNSwieSI6MzYyfSx7IngiOjY3Mi41ODc4OTA2MjUsInkiOjMxN30seyJ4Ijo1MDYuNzAxMTcxODc1LCJ5IjoyODUuMjIzODk0MjQ2NzU3NTR9XQ==" marker-end="url(#graph-18_stateDiagram-barbEnd)"></path><path d="M619.846,766L619.846,772.167C619.846,778.333,619.846,790.667,619.846,803C619.846,815.333,619.846,827.667,619.846,833.833L619.846,840" id="edge18" class="edge-thickness-normal edge-pattern-solid transition" style="fill:none;;;fill:none" data-edge="true" data-et="edge" data-id="edge18" data-points="W3sieCI6NjE5Ljg0NTcwMzEyNSwieSI6NzY2fSx7IngiOjYxOS44NDU3MDMxMjUsInkiOjgwM30seyJ4Ijo2MTkuODQ1NzAzMTI1LCJ5Ijo4NDB9XQ==" marker-end="url(#graph-18_stateDiagram-barbEnd)"></path><path d="M619.846,880L619.846,884.167C619.846,888.333,619.846,896.667,619.846,907.167C619.846,917.667,619.846,930.333,619.846,936.667L619.846,943" id="edge19" class="edge-thickness-normal edge-pattern-solid transition" style="fill:none;;;fill:none" data-edge="true" data-et="edge" data-id="edge19" data-points="W3sieCI6NjE5Ljg0NTcwMzEyNSwieSI6ODgwfSx7IngiOjYxOS44NDU3MDMxMjUsInkiOjkwNX0seyJ4Ijo2MTkuODQ1NzAzMTI1LCJ5Ijo5NDN9XQ==" marker-end="url(#graph-18_stateDiagram-barbEnd)"></path></g><g class="edgeLabels"><g class="edgeLabel"><g class="label" data-id="edge0" transform="translate(0, 0)"><foreignObject width="0" height="0"><div xmlns="http://www.w3.org/1999/xhtml" class="labelBkg" style="display: table-cell; white-space: nowrap; line-height: 1.5; max-width: 200px; text-align: center;"><span class="edgeLabel"></span></div></foreignObject></g></g><g class="edgeLabel"><g class="label" data-id="edge1" transform="translate(0, 0)"><foreignObject width="0" height="0"><div xmlns="http://www.w3.org/1999/xhtml" class="labelBkg" style="display: table-cell; white-space: nowrap; line-height: 1.5; max-width: 200px; text-align: center;"><span class="edgeLabel"></span></div></foreignObject></g></g><g class="edgeLabel"><g class="label" data-id="edge2" transform="translate(0, 0)"><foreignObject width="0" height="0"><div xmlns="http://www.w3.org/1999/xhtml" class="labelBkg" style="display: table-cell; white-space: nowrap; line-height: 1.5; max-width: 200px; text-align: center;"><span class="edgeLabel"></span></div></foreignObject></g></g><g class="edgeLabel"><g class="label" data-id="edge3" transform="translate(0, 0)"><foreignObject width="0" height="0"><div xmlns="http://www.w3.org/1999/xhtml" class="labelBkg" style="display: table-cell; white-space: nowrap; line-height: 1.5; max-width: 200px; text-align: center;"><span class="edgeLabel"></span></div></foreignObject></g></g><g class="edgeLabel"><g class="label" data-id="edge4" transform="translate(0, 0)"><foreignObject width="0" height="0"><div xmlns="http://www.w3.org/1999/xhtml" class="labelBkg" style="display: table-cell; white-space: nowrap; line-height: 1.5; max-width: 200px; text-align: center;"><span class="edgeLabel"></span></div></foreignObject></g></g><g class="edgeLabel"><g class="label" data-id="edge5" transform="translate(0, 0)"><foreignObject width="0" height="0"><div xmlns="http://www.w3.org/1999/xhtml" class="labelBkg" style="display: table-cell; white-space: nowrap; line-height: 1.5; max-width: 200px; text-align: center;"><span class="edgeLabel"></span></div></foreignObject></g></g><g class="edgeLabel"><g class="label" data-id="edge6" transform="translate(0, 0)"><foreignObject width="0" height="0"><div xmlns="http://www.w3.org/1999/xhtml" class="labelBkg" style="display: table-cell; white-space: nowrap; line-height: 1.5; max-width: 200px; text-align: center;"><span class="edgeLabel"></span></div></foreignObject></g></g><g class="edgeLabel"><g class="label" data-id="edge7" transform="translate(0, 0)"><foreignObject width="0" height="0"><div xmlns="http://www.w3.org/1999/xhtml" class="labelBkg" style="display: table-cell; white-space: nowrap; line-height: 1.5; max-width: 200px; text-align: center;"><span class="edgeLabel"></span></div></foreignObject></g></g><g class="edgeLabel"><g class="label" data-id="edge8" transform="translate(0, 0)"><foreignObject width="0" height="0"><div xmlns="http://www.w3.org/1999/xhtml" class="labelBkg" style="display: table-cell; white-space: nowrap; line-height: 1.5; max-width: 200px; text-align: center;"><span class="edgeLabel"></span></div></foreignObject></g></g><g class="edgeLabel" transform="translate(283.28515625, 803)"><g class="label" data-id="edge9" transform="translate(-58.54296875, -12)"><foreignObject width="117.0859375" height="24"><div xmlns="http://www.w3.org/1999/xhtml" class="labelBkg" style="display: table-cell; white-space: nowrap; line-height: 1.5; max-width: 200px; text-align: center;"><span class="edgeLabel"><p>repeated failure</p></span></div></foreignObject></g></g><g class="edgeLabel"><g class="label" data-id="edge10" transform="translate(0, 0)"><foreignObject width="0" height="0"><div xmlns="http://www.w3.org/1999/xhtml" class="labelBkg" style="display: table-cell; white-space: nowrap; line-height: 1.5; max-width: 200px; text-align: center;"><span class="edgeLabel"></span></div></foreignObject></g></g><g class="edgeLabel"><g class="label" data-id="edge11" transform="translate(0, 0)"><foreignObject width="0" height="0"><div xmlns="http://www.w3.org/1999/xhtml" class="labelBkg" style="display: table-cell; white-space: nowrap; line-height: 1.5; max-width: 200px; text-align: center;"><span class="edgeLabel"></span></div></foreignObject></g></g><g class="edgeLabel"><g class="label" data-id="edge12" transform="translate(0, 0)"><foreignObject width="0" height="0"><div xmlns="http://www.w3.org/1999/xhtml" class="labelBkg" style="display: table-cell; white-space: nowrap; line-height: 1.5; max-width: 200px; text-align: center;"><span class="edgeLabel"></span></div></foreignObject></g></g><g class="edgeLabel"><g class="label" data-id="edge13" transform="translate(0, 0)"><foreignObject width="0" height="0"><div xmlns="http://www.w3.org/1999/xhtml" class="labelBkg" style="display: table-cell; white-space: nowrap; line-height: 1.5; max-width: 200px; text-align: center;"><span class="edgeLabel"></span></div></foreignObject></g></g><g class="edgeLabel"><g class="label" data-id="edge14" transform="translate(0, 0)"><foreignObject width="0" height="0"><div xmlns="http://www.w3.org/1999/xhtml" class="labelBkg" style="display: table-cell; white-space: nowrap; line-height: 1.5; max-width: 200px; text-align: center;"><span class="edgeLabel"></span></div></foreignObject></g></g><g class="edgeLabel"><g class="label" data-id="edge15" transform="translate(0, 0)"><foreignObject width="0" height="0"><div xmlns="http://www.w3.org/1999/xhtml" class="labelBkg" style="display: table-cell; white-space: nowrap; line-height: 1.5; max-width: 200px; text-align: center;"><span class="edgeLabel"></span></div></foreignObject></g></g><g class="edgeLabel"><g class="label" data-id="edge16" transform="translate(0, 0)"><foreignObject width="0" height="0"><div xmlns="http://www.w3.org/1999/xhtml" class="labelBkg" style="display: table-cell; white-space: nowrap; line-height: 1.5; max-width: 200px; text-align: center;"><span class="edgeLabel"></span></div></foreignObject></g></g><g class="edgeLabel" transform="translate(672.587890625, 509)"><g class="label" data-id="edge17" transform="translate(-11.546875, -12)"><foreignObject width="23.09375" height="24"><div xmlns="http://www.w3.org/1999/xhtml" class="labelBkg" style="display: table-cell; white-space: nowrap; line-height: 1.5; max-width: 200px; text-align: center;"><span class="edgeLabel"><p>yes</p></span></div></foreignObject></g></g><g class="edgeLabel" transform="translate(619.845703125, 803)"><g class="label" data-id="edge18" transform="translate(-8.6640625, -12)"><foreignObject width="17.328125" height="24"><div xmlns="http://www.w3.org/1999/xhtml" class="labelBkg" style="display: table-cell; white-space: nowrap; line-height: 1.5; max-width: 200px; text-align: center;"><span class="edgeLabel"><p>no</p></span></div></foreignObject></g></g><g class="edgeLabel"><g class="label" data-id="edge19" transform="translate(0, 0)"><foreignObject width="0" height="0"><div xmlns="http://www.w3.org/1999/xhtml" class="labelBkg" style="display: table-cell; white-space: nowrap; line-height: 1.5; max-width: 200px; text-align: center;"><span class="edgeLabel"></span></div></foreignObject></g></g></g><g class="nodes"><g class="node default" id="state-root_start-0" transform="translate(437.666015625, 15)"><circle class="state-start" r="7" width="14" height="14"></circle></g><g class="node  statediagram-state" id="state-SessionInitialization-1" transform="translate(437.666015625, 92)"><rect class="basic label-container" style="" rx="5" ry="5" x="-78.92578125" y="-20" width="157.8515625" height="40"></rect><g class="label" style="" transform="translate(-70.92578125, -12)"><rect></rect><foreignObject width="141.8515625" height="24"><div xmlns="http://www.w3.org/1999/xhtml" style="display: table-cell; white-space: nowrap; line-height: 1.5; max-width: 200px; text-align: center;"><span class="nodeLabel"><p>SessionInitialization</p></span></div></foreignObject></g></g><g class="node  statediagram-state" id="state-Greeting-2" transform="translate(437.666015625, 182)"><rect class="basic label-container" style="" rx="5" ry="5" x="-39.0859375" y="-20" width="78.171875" height="40"></rect><g class="label" style="" transform="translate(-31.0859375, -12)"><rect></rect><foreignObject width="62.171875" height="24"><div xmlns="http://www.w3.org/1999/xhtml" style="display: table-cell; white-space: nowrap; line-height: 1.5; max-width: 200px; text-align: center;"><span class="nodeLabel"><p>Greeting</p></span></div></foreignObject></g></g><g class="node  statediagram-state" id="state-DirectionRequest-17" transform="translate(437.666015625, 272)"><rect class="basic label-container" style="" rx="5" ry="5" x="-69.03515625" y="-20" width="138.0703125" height="40"></rect><g class="label" style="" transform="translate(-61.03515625, -12)"><rect></rect><foreignObject width="122.0703125" height="24"><div xmlns="http://www.w3.org/1999/xhtml" style="display: table-cell; white-space: nowrap; line-height: 1.5; max-width: 200px; text-align: center;"><span class="nodeLabel"><p>DirectionRequest</p></span></div></foreignObject></g></g><g class="node  statediagram-state" id="state-AskStartingLocation-8" transform="translate(283.28515625, 362)"><rect class="basic label-container" style="" rx="5" ry="5" x="-78.7890625" y="-20" width="157.578125" height="40"></rect><g class="label" style="" transform="translate(-70.7890625, -12)"><rect></rect><foreignObject width="141.578125" height="24"><div xmlns="http://www.w3.org/1999/xhtml" style="display: table-cell; white-space: nowrap; line-height: 1.5; max-width: 200px; text-align: center;"><span class="nodeLabel"><p>AskStartingLocation</p></span></div></foreignObject></g></g><g class="node  statediagram-state" id="state-GPSLocation-10" transform="translate(201.73046875, 452)"><rect class="basic label-container" style="" rx="5" ry="5" x="-52.34375" y="-20" width="104.6875" height="40"></rect><g class="label" style="" transform="translate(-44.34375, -12)"><rect></rect><foreignObject width="88.6875" height="24"><div xmlns="http://www.w3.org/1999/xhtml" style="display: table-cell; white-space: nowrap; line-height: 1.5; max-width: 200px; text-align: center;"><span class="nodeLabel"><p>GPSLocation</p></span></div></foreignObject></g></g><g class="node  statediagram-state" id="state-ManualAddress-11" transform="translate(364.83984375, 452)"><rect class="basic label-container" style="" rx="5" ry="5" x="-60.765625" y="-20" width="121.53125" height="40"></rect><g class="label" style="" transform="translate(-52.765625, -12)"><rect></rect><foreignObject width="105.53125" height="24"><div xmlns="http://www.w3.org/1999/xhtml" style="display: table-cell; white-space: nowrap; line-height: 1.5; max-width: 200px; text-align: center;"><span class="nodeLabel"><p>ManualAddress</p></span></div></foreignObject></g></g><g class="node  statediagram-state" id="state-InvalidLocation-7" transform="translate(70.44140625, 656)"><rect class="basic label-container" style="" rx="5" ry="5" x="-62.44140625" y="-20" width="124.8828125" height="40"></rect><g class="label" style="" transform="translate(-54.44140625, -12)"><rect></rect><foreignObject width="108.8828125" height="24"><div xmlns="http://www.w3.org/1999/xhtml" style="display: table-cell; white-space: nowrap; line-height: 1.5; max-width: 200px; text-align: center;"><span class="nodeLabel"><p>InvalidLocation</p></span></div></foreignObject></g></g><g class="node  statediagram-state" id="state-RetryLocationInput-13" transform="translate(283.28515625, 746)"><rect class="basic label-container" style="" rx="5" ry="5" x="-76.14453125" y="-20" width="152.2890625" height="40"></rect><g class="label" style="" transform="translate(-68.14453125, -12)"><rect></rect><foreignObject width="136.2890625" height="24"><div xmlns="http://www.w3.org/1999/xhtml" style="display: table-cell; white-space: nowrap; line-height: 1.5; max-width: 200px; text-align: center;"><span class="nodeLabel"><p>RetryLocationInput</p></span></div></foreignObject></g></g><g class="node  statediagram-state" id="state-FallbackNavigation-15" transform="translate(283.28515625, 860)"><rect class="basic label-container" style="" rx="5" ry="5" x="-75.62109375" y="-20" width="151.2421875" height="40"></rect><g class="label" style="" transform="translate(-67.62109375, -12)"><rect></rect><foreignObject width="135.2421875" height="24"><div xmlns="http://www.w3.org/1999/xhtml" style="display: table-cell; white-space: nowrap; line-height: 1.5; max-width: 200px; text-align: center;"><span class="nodeLabel"><p>FallbackNavigation</p></span></div></foreignObject></g></g><g class="node  statediagram-state" id="state-GenerateRoute-14" transform="translate(283.28515625, 566)"><rect class="basic label-container" style="" rx="5" ry="5" x="-61.88671875" y="-20" width="123.7734375" height="40"></rect><g class="label" style="" transform="translate(-53.88671875, -12)"><rect></rect><foreignObject width="107.7734375" height="24"><div xmlns="http://www.w3.org/1999/xhtml" style="display: table-cell; white-space: nowrap; line-height: 1.5; max-width: 200px; text-align: center;"><span class="nodeLabel"><p>GenerateRoute</p></span></div></foreignObject></g></g><g class="node  statediagram-state" id="state-RouteNotFound-13" transform="translate(283.28515625, 656)"><rect class="basic label-container" style="" rx="5" ry="5" x="-62.79296875" y="-20" width="125.5859375" height="40"></rect><g class="label" style="" transform="translate(-54.79296875, -12)"><rect></rect><foreignObject width="109.5859375" height="24"><div xmlns="http://www.w3.org/1999/xhtml" style="display: table-cell; white-space: nowrap; line-height: 1.5; max-width: 200px; text-align: center;"><span class="nodeLabel"><p>RouteNotFound</p></span></div></foreignObject></g></g><g class="node  statediagram-state" id="state-ProvideDirections-16" transform="translate(567.103515625, 656)"><rect class="basic label-container" style="" rx="5" ry="5" x="-70.484375" y="-20" width="140.96875" height="40"></rect><g class="label" style="" transform="translate(-62.484375, -12)"><rect></rect><foreignObject width="124.96875" height="24"><div xmlns="http://www.w3.org/1999/xhtml" style="display: table-cell; white-space: nowrap; line-height: 1.5; max-width: 200px; text-align: center;"><span class="nodeLabel"><p>ProvideDirections</p></span></div></foreignObject></g></g><g class="node  statediagram-state" id="state-HumanSupport-15" transform="translate(283.28515625, 950)"><rect class="basic label-container" style="" rx="5" ry="5" x="-60.52734375" y="-20" width="121.0546875" height="40"></rect><g class="label" style="" transform="translate(-52.52734375, -12)"><rect></rect><foreignObject width="105.0546875" height="24"><div xmlns="http://www.w3.org/1999/xhtml" style="display: table-cell; white-space: nowrap; line-height: 1.5; max-width: 200px; text-align: center;"><span class="nodeLabel"><p>HumanSupport</p></span></div></foreignObject></g></g><g class="node  statediagram-state" id="state-AskMoreHelp-18" transform="translate(619.845703125, 746)"><rect class="basic label-container" style="" rx="5" ry="5" x="-53.84765625" y="-20" width="107.6953125" height="40"></rect><g class="label" style="" transform="translate(-45.84765625, -12)"><rect></rect><foreignObject width="91.6953125" height="24"><div xmlns="http://www.w3.org/1999/xhtml" style="display: table-cell; white-space: nowrap; line-height: 1.5; max-width: 200px; text-align: center;"><span class="nodeLabel"><p>AskMoreHelp</p></span></div></foreignObject></g></g><g class="node  statediagram-state" id="state-EndSession-19" transform="translate(619.845703125, 860)"><rect class="basic label-container" style="" rx="5" ry="5" x="-46.74609375" y="-20" width="93.4921875" height="40"></rect><g class="label" style="" transform="translate(-38.74609375, -12)"><rect></rect><foreignObject width="77.4921875" height="24"><div xmlns="http://www.w3.org/1999/xhtml" style="display: table-cell; white-space: nowrap; line-height: 1.5; max-width: 200px; text-align: center;"><span class="nodeLabel"><p>EndSession</p></span></div></foreignObject></g></g><g class="node default" id="state-root_end-19" transform="translate(619.845703125, 950)"><g><path d="M7 0 C7 0.40517908122283747, 6.964012880168563 0.816513743121899, 6.893654271085456 1.2155372436685123 C6.823295662002349 1.6145607442151257, 6.716427752933756 2.013397210557766, 6.5778483455013586 2.394141003279681 C6.439268938068961 2.7748847960015954, 6.26476736710249 3.149104622578984, 6.062177826491071 3.4999999999999996 C5.859588285879653 3.8508953774210153, 5.622755194947063 4.189128084166967, 5.362311101832846 4.499513267805774 C5.10186700871863 4.809898451444582, 4.809898451444583 5.10186700871863, 4.499513267805775 5.362311101832846 C4.189128084166968 5.622755194947063, 3.8508953774210166 5.859588285879652, 3.500000000000001 6.06217782649107 C3.149104622578985 6.264767367102489, 2.7748847960015963 6.439268938068961, 2.3941410032796817 6.5778483455013586 C2.013397210557767 6.716427752933756, 1.6145607442151264 6.823295662002349, 1.2155372436685128 6.893654271085456 C0.8165137431218992 6.964012880168563, 0.4051790812228379 7, 4.286263797015736e-16 7 C-0.405179081222837 7, -0.8165137431218985 6.964012880168563, -1.2155372436685121 6.893654271085456 C-1.6145607442151257 6.823295662002349, -2.0133972105577667 6.716427752933756, -2.394141003279681 6.5778483455013586 C-2.774884796001595 6.439268938068961, -3.149104622578983 6.26476736710249, -3.4999999999999982 6.062177826491071 C-3.8508953774210135 5.859588285879653, -4.189128084166966 5.6227551949470636, -4.499513267805773 5.362311101832848 C-4.809898451444581 5.101867008718632, -5.101867008718628 4.809898451444586, -5.3623111018328435 4.499513267805779 C-5.622755194947059 4.189128084166971, -5.859588285879649 3.8508953774210206, -6.062177826491068 3.5000000000000053 C-6.264767367102486 3.14910462257899, -6.439268938068958 2.774884796001602, -6.577848345501356 2.394141003279688 C-6.716427752933754 2.0133972105577738, -6.823295662002347 1.614560744215134, -6.893654271085454 1.215537243668521 C-6.9640128801685615 0.816513743121908, -6.999999999999999 0.4051790812228472, -7 1.0183126166254463e-14 C-7.000000000000001 -0.40517908122282686, -6.964012880168565 -0.8165137431218878, -6.893654271085459 -1.215537243668501 C-6.823295662002352 -1.6145607442151142, -6.716427752933759 -2.0133972105577542, -6.577848345501363 -2.394141003279669 C-6.439268938068967 -2.7748847960015834, -6.264767367102496 -3.149104622578972, -6.062177826491078 -3.4999999999999876 C-5.859588285879661 -3.8508953774210033, -5.6227551949470715 -4.1891280841669545, -5.362311101832856 -4.499513267805763 C-5.10186700871864 -4.809898451444571, -4.809898451444594 -5.10186700871862, -4.499513267805787 -5.362311101832836 C-4.189128084166979 -5.622755194947053, -3.850895377421028 -5.859588285879643, -3.5000000000000133 -6.062177826491062 C-3.1491046225789985 -6.264767367102482, -2.774884796001611 -6.439268938068954, -2.3941410032796973 -6.577848345501353 C-2.0133972105577835 -6.716427752933752, -1.6145607442151435 -6.823295662002345, -1.2155372436685306 -6.893654271085453 C-0.8165137431219176 -6.9640128801685615, -0.40517908122285695 -6.999999999999999, -1.9937625952807352e-14 -7 C0.4051790812228171 -7.000000000000001, 0.8165137431218781 -6.964012880168565, 1.2155372436684913 -6.89365427108546 C1.6145607442151044 -6.823295662002354, 2.013397210557745 -6.716427752933763, 2.3941410032796595 -6.5778483455013665 C2.774884796001574 -6.43926893806897, 3.149104622578963 -6.2647673671025, 3.499999999999979 -6.062177826491083 C3.8508953774209953 -5.859588285879665, 4.189128084166947 -5.622755194947077, 4.499513267805756 -5.362311101832862 C4.809898451444564 -5.1018670087186475, 5.101867008718613 -4.809898451444602, 5.362311101832829 -4.499513267805796 C5.622755194947046 -4.189128084166989, 5.859588285879637 -3.8508953774210393, 6.062177826491056 -3.500000000000025 C6.2647673671024755 -3.1491046225790105, 6.439268938068949 -2.774884796001623, 6.577848345501348 -2.3941410032797092 C6.716427752933747 -2.0133972105577955, 6.823295662002342 -1.6145607442151562, 6.893654271085451 -1.2155372436685434 C6.96401288016856 -0.8165137431219307, 6.982275711847575 -0.2025895406114567, 7 -3.2800750208310675e-14 C7.017724288152425 0.2025895406113911, 7.017724288152424 -0.2025895406114242, 7 0" stroke="none" stroke-width="0" fill="#ECECFF" style=""></path><path d="M7 0 C7 0.40517908122283747, 6.964012880168563 0.816513743121899, 6.893654271085456 1.2155372436685123 C6.823295662002349 1.6145607442151257, 6.716427752933756 2.013397210557766, 6.5778483455013586 2.394141003279681 C6.439268938068961 2.7748847960015954, 6.26476736710249 3.149104622578984, 6.062177826491071 3.4999999999999996 C5.859588285879653 3.8508953774210153, 5.622755194947063 4.189128084166967, 5.362311101832846 4.499513267805774 C5.10186700871863 4.809898451444582, 4.809898451444583 5.10186700871863, 4.499513267805775 5.362311101832846 C4.189128084166968 5.622755194947063, 3.8508953774210166 5.859588285879652, 3.500000000000001 6.06217782649107 C3.149104622578985 6.264767367102489, 2.7748847960015963 6.439268938068961, 2.3941410032796817 6.5778483455013586 C2.013397210557767 6.716427752933756, 1.6145607442151264 6.823295662002349, 1.2155372436685128 6.893654271085456 C0.8165137431218992 6.964012880168563, 0.4051790812228379 7, 4.286263797015736e-16 7 C-0.405179081222837 7, -0.8165137431218985 6.964012880168563, -1.2155372436685121 6.893654271085456 C-1.6145607442151257 6.823295662002349, -2.0133972105577667 6.716427752933756, -2.394141003279681 6.5778483455013586 C-2.774884796001595 6.439268938068961, -3.149104622578983 6.26476736710249, -3.4999999999999982 6.062177826491071 C-3.8508953774210135 5.859588285879653, -4.189128084166966 5.6227551949470636, -4.499513267805773 5.362311101832848 C-4.809898451444581 5.101867008718632, -5.101867008718628 4.809898451444586, -5.3623111018328435 4.499513267805779 C-5.622755194947059 4.189128084166971, -5.859588285879649 3.8508953774210206, -6.062177826491068 3.5000000000000053 C-6.264767367102486 3.14910462257899, -6.439268938068958 2.774884796001602, -6.577848345501356 2.394141003279688 C-6.716427752933754 2.0133972105577738, -6.823295662002347 1.614560744215134, -6.893654271085454 1.215537243668521 C-6.9640128801685615 0.816513743121908, -6.999999999999999 0.4051790812228472, -7 1.0183126166254463e-14 C-7.000000000000001 -0.40517908122282686, -6.964012880168565 -0.8165137431218878, -6.893654271085459 -1.215537243668501 C-6.823295662002352 -1.6145607442151142, -6.716427752933759 -2.0133972105577542, -6.577848345501363 -2.394141003279669 C-6.439268938068967 -2.7748847960015834, -6.264767367102496 -3.149104622578972, -6.062177826491078 -3.4999999999999876 C-5.859588285879661 -3.8508953774210033, -5.6227551949470715 -4.1891280841669545, -5.362311101832856 -4.499513267805763 C-5.10186700871864 -4.809898451444571, -4.809898451444594 -5.10186700871862, -4.499513267805787 -5.362311101832836 C-4.189128084166979 -5.622755194947053, -3.850895377421028 -5.859588285879643, -3.5000000000000133 -6.062177826491062 C-3.1491046225789985 -6.264767367102482, -2.774884796001611 -6.439268938068954, -2.3941410032796973 -6.577848345501353 C-2.0133972105577835 -6.716427752933752, -1.6145607442151435 -6.823295662002345, -1.2155372436685306 -6.893654271085453 C-0.8165137431219176 -6.9640128801685615, -0.40517908122285695 -6.999999999999999, -1.9937625952807352e-14 -7 C0.4051790812228171 -7.000000000000001, 0.8165137431218781 -6.964012880168565, 1.2155372436684913 -6.89365427108546 C1.6145607442151044 -6.823295662002354, 2.013397210557745 -6.716427752933763, 2.3941410032796595 -6.5778483455013665 C2.774884796001574 -6.43926893806897, 3.149104622578963 -6.2647673671025, 3.499999999999979 -6.062177826491083 C3.8508953774209953 -5.859588285879665, 4.189128084166947 -5.622755194947077, 4.499513267805756 -5.362311101832862 C4.809898451444564 -5.1018670087186475, 5.101867008718613 -4.809898451444602, 5.362311101832829 -4.499513267805796 C5.622755194947046 -4.189128084166989, 5.859588285879637 -3.8508953774210393, 6.062177826491056 -3.500000000000025 C6.2647673671024755 -3.1491046225790105, 6.439268938068949 -2.774884796001623, 6.577848345501348 -2.3941410032797092 C6.716427752933747 -2.0133972105577955, 6.823295662002342 -1.6145607442151562, 6.893654271085451 -1.2155372436685434 C6.96401288016856 -0.8165137431219307, 6.982275711847575 -0.2025895406114567, 7 -3.2800750208310675e-14 C7.017724288152425 0.2025895406113911, 7.017724288152424 -0.2025895406114242, 7 0" stroke="#333333" stroke-width="2" fill="none" stroke-dasharray="0 0" style=""></path><g><path d="M2.5 0 C2.5 0.14470681472244193, 2.487147457203058 0.29161205111496386, 2.46201938253052 0.4341204441673258 C2.436891307857982 0.5766288372196877, 2.3987241974763416 0.7190704323420595, 2.3492315519647713 0.8550503583141718 C2.299738906453201 0.991030284286284, 2.2374169168223177 1.124680222349637, 2.165063509461097 1.2499999999999998 C2.092710102099876 1.3753197776503625, 2.0081268553382365 1.496117172916774, 1.915111107797445 1.6069690242163481 C1.8220953602566536 1.7178208755159223, 1.7178208755159226 1.8220953602566536, 1.6069690242163484 1.915111107797445 C1.4961171729167742 2.0081268553382365, 1.375319777650363 2.0927101020998755, 1.2500000000000002 2.1650635094610964 C1.1246802223496375 2.2374169168223172, 0.9910302842862845 2.2997389064532, 0.8550503583141721 2.349231551964771 C0.7190704323420597 2.3987241974763416, 0.576628837219688 2.436891307857982, 0.43412044416732604 2.46201938253052 C0.291612051114964 2.487147457203058, 0.14470681472244212 2.5, 1.5308084989341916e-16 2.5 C-0.1447068147224418 2.5, -0.2916120511149638 2.487147457203058, -0.43412044416732576 2.46201938253052 C-0.5766288372196877 2.436891307857982, -0.7190704323420595 2.3987241974763416, -0.8550503583141718 2.3492315519647713 C-0.991030284286284 2.299738906453201, -1.124680222349637 2.2374169168223177, -1.2499999999999996 2.165063509461097 C-1.375319777650362 2.092710102099876, -1.4961171729167733 2.008126855338237, -1.6069690242163475 1.9151111077974459 C-1.7178208755159217 1.8220953602566548, -1.822095360256653 1.7178208755159234, -1.9151111077974443 1.6069690242163495 C-2.0081268553382357 1.4961171729167755, -2.0927101020998746 1.3753197776503645, -2.1650635094610955 1.250000000000002 C-2.2374169168223164 1.1246802223496395, -2.2997389064531992 0.9910302842862865, -2.34923155196477 0.8550503583141743 C-2.3987241974763407 0.7190704323420621, -2.436891307857981 0.5766288372196907, -2.4620193825305194 0.434120444167329 C-2.487147457203058 0.29161205111496724, -2.5 0.14470681472244545, -2.5 3.636830773662308e-15 C-2.5 -0.14470681472243818, -2.4871474572030587 -0.2916120511149599, -2.4620193825305208 -0.4341204441673218 C-2.436891307857983 -0.5766288372196837, -2.398724197476343 -0.7190704323420553, -2.3492315519647726 -0.8550503583141675 C-2.2997389064532023 -0.9910302842862798, -2.23741691682232 -1.1246802223496328, -2.165063509461099 -1.2499999999999956 C-2.092710102099878 -1.3753197776503583, -2.00812685533824 -1.4961171729167695, -1.9151111077974488 -1.606969024216344 C-1.8220953602566576 -1.7178208755159183, -1.7178208755159263 -1.82209536025665, -1.6069690242163523 -1.9151111077974416 C-1.4961171729167784 -2.0081268553382334, -1.3753197776503672 -2.0927101020998724, -1.2500000000000047 -2.1650635094610937 C-1.1246802223496422 -2.237416916822315, -0.9910302842862897 -2.299738906453198, -0.8550503583141776 -2.3492315519647686 C-0.7190704323420656 -2.3987241974763394, -0.5766288372196942 -2.4368913078579806, -0.43412044416733236 -2.462019382530519 C-0.29161205111497057 -2.4871474572030574, -0.1447068147224489 -2.4999999999999996, -7.120580697431198e-15 -2.5 C0.14470681472243463 -2.5000000000000004, 0.29161205111495647 -2.487147457203059, 0.4341204441673183 -2.4620193825305217 C0.5766288372196802 -2.436891307857984, 0.7190704323420518 -2.3987241974763442, 0.8550503583141642 -2.349231551964774 C0.9910302842862766 -2.2997389064532037, 1.1246802223496295 -2.2374169168223212, 1.2499999999999925 -2.165063509461101 C1.3753197776503554 -2.0927101020998804, 1.4961171729167668 -2.008126855338242, 1.6069690242163412 -1.915111107797451 C1.7178208755159157 -1.82209536025666, 1.8220953602566472 -1.7178208755159294, 1.915111107797439 -1.6069690242163557 C2.0081268553382308 -1.496117172916782, 2.09271010209987 -1.3753197776503712, 2.1650635094610915 -1.2500000000000089 C2.237416916822313 -1.1246802223496466, 2.299738906453196 -0.9910302842862939, 2.3492315519647673 -0.855050358314182 C2.3987241974763385 -0.71907043234207, 2.4368913078579792 -0.5766288372196986, 2.462019382530518 -0.4341204441673369 C2.487147457203057 -0.29161205111497523, 2.4936698970884197 -0.07235340736123454, 2.5 -1.1714553645825241e-14 C2.5063301029115803 0.07235340736121111, 2.50633010291158 -0.07235340736122292, 2.5 0" stroke="none" stroke-width="0" fill="#9370DB" style=""></path><path d="M2.5 0 C2.5 0.14470681472244193, 2.487147457203058 0.29161205111496386, 2.46201938253052 0.4341204441673258 C2.436891307857982 0.5766288372196877, 2.3987241974763416 0.7190704323420595, 2.3492315519647713 0.8550503583141718 C2.299738906453201 0.991030284286284, 2.2374169168223177 1.124680222349637, 2.165063509461097 1.2499999999999998 C2.092710102099876 1.3753197776503625, 2.0081268553382365 1.496117172916774, 1.915111107797445 1.6069690242163481 C1.8220953602566536 1.7178208755159223, 1.7178208755159226 1.8220953602566536, 1.6069690242163484 1.915111107797445 C1.4961171729167742 2.0081268553382365, 1.375319777650363 2.0927101020998755, 1.2500000000000002 2.1650635094610964 C1.1246802223496375 2.2374169168223172, 0.9910302842862845 2.2997389064532, 0.8550503583141721 2.349231551964771 C0.7190704323420597 2.3987241974763416, 0.576628837219688 2.436891307857982, 0.43412044416732604 2.46201938253052 C0.291612051114964 2.487147457203058, 0.14470681472244212 2.5, 1.5308084989341916e-16 2.5 C-0.1447068147224418 2.5, -0.2916120511149638 2.487147457203058, -0.43412044416732576 2.46201938253052 C-0.5766288372196877 2.436891307857982, -0.7190704323420595 2.3987241974763416, -0.8550503583141718 2.3492315519647713 C-0.991030284286284 2.299738906453201, -1.124680222349637 2.2374169168223177, -1.2499999999999996 2.165063509461097 C-1.375319777650362 2.092710102099876, -1.4961171729167733 2.008126855338237, -1.6069690242163475 1.9151111077974459 C-1.7178208755159217 1.8220953602566548, -1.822095360256653 1.7178208755159234, -1.9151111077974443 1.6069690242163495 C-2.0081268553382357 1.4961171729167755, -2.0927101020998746 1.3753197776503645, -2.1650635094610955 1.250000000000002 C-2.2374169168223164 1.1246802223496395, -2.2997389064531992 0.9910302842862865, -2.34923155196477 0.8550503583141743 C-2.3987241974763407 0.7190704323420621, -2.436891307857981 0.5766288372196907, -2.4620193825305194 0.434120444167329 C-2.487147457203058 0.29161205111496724, -2.5 0.14470681472244545, -2.5 3.636830773662308e-15 C-2.5 -0.14470681472243818, -2.4871474572030587 -0.2916120511149599, -2.4620193825305208 -0.4341204441673218 C-2.436891307857983 -0.5766288372196837, -2.398724197476343 -0.7190704323420553, -2.3492315519647726 -0.8550503583141675 C-2.2997389064532023 -0.9910302842862798, -2.23741691682232 -1.1246802223496328, -2.165063509461099 -1.2499999999999956 C-2.092710102099878 -1.3753197776503583, -2.00812685533824 -1.4961171729167695, -1.9151111077974488 -1.606969024216344 C-1.8220953602566576 -1.7178208755159183, -1.7178208755159263 -1.82209536025665, -1.6069690242163523 -1.9151111077974416 C-1.4961171729167784 -2.0081268553382334, -1.3753197776503672 -2.0927101020998724, -1.2500000000000047 -2.1650635094610937 C-1.1246802223496422 -2.237416916822315, -0.9910302842862897 -2.299738906453198, -0.8550503583141776 -2.3492315519647686 C-0.7190704323420656 -2.3987241974763394, -0.5766288372196942 -2.4368913078579806, -0.43412044416733236 -2.462019382530519 C-0.29161205111497057 -2.4871474572030574, -0.1447068147224489 -2.4999999999999996, -7.120580697431198e-15 -2.5 C0.14470681472243463 -2.5000000000000004, 0.29161205111495647 -2.487147457203059, 0.4341204441673183 -2.4620193825305217 C0.5766288372196802 -2.436891307857984, 0.7190704323420518 -2.3987241974763442, 0.8550503583141642 -2.349231551964774 C0.9910302842862766 -2.2997389064532037, 1.1246802223496295 -2.2374169168223212, 1.2499999999999925 -2.165063509461101 C1.3753197776503554 -2.0927101020998804, 1.4961171729167668 -2.008126855338242, 1.6069690242163412 -1.915111107797451 C1.7178208755159157 -1.82209536025666, 1.8220953602566472 -1.7178208755159294, 1.915111107797439 -1.6069690242163557 C2.0081268553382308 -1.496117172916782, 2.09271010209987 -1.3753197776503712, 2.1650635094610915 -1.2500000000000089 C2.237416916822313 -1.1246802223496466, 2.299738906453196 -0.9910302842862939, 2.3492315519647673 -0.855050358314182 C2.3987241974763385 -0.71907043234207, 2.4368913078579792 -0.5766288372196986, 2.462019382530518 -0.4341204441673369 C2.487147457203057 -0.29161205111497523, 2.4936698970884197 -0.07235340736123454, 2.5 -1.1714553645825241e-14 C2.5063301029115803 0.07235340736121111, 2.50633010291158 -0.07235340736122292, 2.5 0" stroke="#9370DB" stroke-width="2" fill="none" stroke-dasharray="0 0" style=""></path></g></g></g></g></g></g></g></svg>